<?xml version="1.0" encoding="UTF-8"?>
<svg version="1.1" xmlns="http://www.w3.org/2000/svg" width="1407" height="768">
<path d="M0 0 C2.76938194 -0.00161479 5.53875728 -0.0062053 8.30813599 -0.01062012 C15.0201619 -0.01946653 21.73214284 -0.01761311 28.44417045 -0.01179484 C33.90656301 -0.00725801 39.36894306 -0.00667414 44.83133698 -0.00884247 C45.61202148 -0.00914893 46.39270599 -0.0094554 47.19704761 -0.00977115 C48.7835837 -0.01041068 50.3701198 -0.01105911 51.95665589 -0.01171634 C66.80012535 -0.01740611 81.64357003 -0.01088382 96.48703542 -0.0001156 C109.18505427 0.00881162 121.88303651 0.00727206 134.58105469 -0.00195312 C149.36915413 -0.01269193 164.15723187 -0.01684954 178.94533467 -0.0107286 C180.52690331 -0.01009159 182.10847195 -0.00946284 183.69004059 -0.00884247 C184.85690404 -0.00837964 184.85690404 -0.00837964 186.0473405 -0.00790747 C191.49232771 -0.00619079 196.93730101 -0.00907343 202.38228607 -0.01380157 C209.03377912 -0.01945101 215.68522506 -0.01780988 222.33671281 -0.00724009 C225.72141058 -0.0020363 229.10596645 -0.00093801 232.49067307 -0.00653839 C271.6424311 -0.06530455 271.6424311 -0.06530455 287.46582031 6.07128906 C288.43527588 6.42876221 289.40473145 6.78623535 290.40356445 7.15454102 C293.12169222 8.16547537 295.82612043 9.20616324 298.52832031 10.25878906 C299.20636719 10.5162793 299.88441406 10.77376953 300.58300781 11.0390625 C307.02227163 13.48893525 312.90379029 16.25671962 318.52832031 20.25878906 C318.52832031 20.91878906 318.52832031 21.57878906 318.52832031 22.25878906 C319.07101562 22.49726563 319.61371094 22.73574219 320.17285156 22.98144531 C323.13909256 24.59000387 325.59842028 26.56812268 328.21582031 28.69628906 C329.1890625 29.47875 330.16230469 30.26121094 331.16503906 31.06738281 C333.52832031 33.25878906 333.52832031 33.25878906 334.52832031 36.25878906 C336.41568042 37.32240128 336.41568042 37.32240128 338.52832031 38.25878906 C346.21699363 43.95835287 350.85122818 53.12764289 355.52832031 61.25878906 C355.90166504 61.90525391 356.27500977 62.55171875 356.65966797 63.21777344 C368.02596658 83.2984063 371.78752645 105.22252361 371.94238281 128.03613281 C371.96147041 129.87711215 371.98119332 131.718085 372.0014801 133.55905151 C372.05461844 138.68296846 372.09396974 143.80690901 372.12981796 148.93097305 C372.15343641 152.21241868 372.18024553 155.49382425 372.20791626 158.77523804 C372.60400579 206.45665445 372.66445384 254.14084675 372.7062583 301.82365412 C372.71287274 309.00596925 372.72403975 316.18826853 372.73687744 323.37057495 C372.75247079 332.25363917 372.76004499 341.13667235 372.75817078 350.0197506 C372.75731156 354.62037687 372.75946859 359.22094473 372.77017403 363.82155991 C372.87478995 411.70922085 372.87478995 411.70922085 367.52832031 428.25878906 C367.31079102 428.94763184 367.09326172 429.63647461 366.86914062 430.34619141 C362.97810617 442.44849076 357.8177007 452.85870798 350.52832031 463.25878906 C350.13322266 463.82742676 349.738125 464.39606445 349.33105469 464.98193359 C341.38534696 476.30289784 332.12711516 484.72056287 321.18554688 493.00292969 C319.74719514 494.09292399 318.32027964 495.19797795 316.89550781 496.30566406 C296.60748216 511.43798683 270.08716928 516.42850388 245.37322998 516.39250183 C243.62906528 516.39590017 243.62906528 516.39590017 241.84966493 516.39936715 C238.65820744 516.40456081 235.46678585 516.40535923 232.27532554 516.40417278 C228.81916139 516.40396713 225.36300537 516.40950299 221.90684509 516.41423035 C215.1493061 516.42250193 208.39177583 516.42528359 201.63423219 516.42584272 C196.13646614 516.4263195 190.63870295 516.42838228 185.14093781 516.43154335 C169.52168915 516.44034 153.90244733 516.44496422 138.28319618 516.44421288 C137.44289086 516.44417292 136.60258553 516.44413296 135.73681641 516.4440918 C134.89547418 516.44405092 134.05413196 516.44401004 133.18729451 516.44396792 C119.55771702 516.44356162 105.92816717 516.45312973 92.29859766 516.46723016 C78.27242462 516.48162535 64.24626504 516.48849864 50.22008443 516.48763639 C42.35806309 516.48730553 34.49607074 516.49000383 26.63405609 516.50081444 C19.9399557 516.50996086 13.24589745 516.51206087 6.55179349 516.50530501 C3.14318164 516.5020607 -0.26528422 516.50301357 -3.6738987 516.51065826 C-37.7684051 516.5821361 -37.7684051 516.5821361 -51.53417969 512.00878906 C-52.18209473 511.79407959 -52.83000977 511.57937012 -53.49755859 511.3581543 C-55.49833304 510.68226934 -57.4859305 509.97753914 -59.47167969 509.25878906 C-60.13119629 509.02111816 -60.79071289 508.78344727 -61.47021484 508.53857422 C-79.85580369 501.80245541 -94.40998509 490.68231598 -108.47167969 477.25878906 C-109.38240234 476.41960937 -109.38240234 476.41960937 -110.31152344 475.56347656 C-111.47167969 474.25878906 -111.47167969 474.25878906 -111.47167969 472.25878906 C-112.13167969 472.25878906 -112.79167969 472.25878906 -113.47167969 472.25878906 C-124.63090369 458.04224341 -133.74071272 441.36295982 -138.09667969 423.82128906 C-138.45004395 422.43224365 -138.45004395 422.43224365 -138.81054688 421.01513672 C-140.25479524 414.4983254 -140.74153563 408.0388682 -141.02755737 401.39151001 C-141.06957901 400.43129177 -141.11160064 399.47107352 -141.15489566 398.48175776 C-141.61294298 387.07454032 -141.61200819 375.67094335 -141.60107422 364.25634766 C-141.60243331 361.83550999 -141.60421607 359.41467253 -141.60638428 356.99383545 C-141.61043338 351.15740676 -141.60989237 345.32099261 -141.60697164 339.48456351 C-141.60469234 334.72846349 -141.60441589 329.97236705 -141.60549545 325.21626663 C-141.60564869 324.53349134 -141.60580192 323.85071605 -141.6059598 323.1472506 C-141.6062796 321.75915483 -141.60660381 320.37105905 -141.60693239 318.98296328 C-141.60976992 306.02864712 -141.6065281 293.07433808 -141.60113202 280.12002309 C-141.59667163 269.07138552 -141.59743698 258.02275847 -141.60205078 246.97412109 C-141.60743779 234.06833175 -141.60948908 221.16254864 -141.60643852 208.25675833 C-141.60612006 206.87257425 -141.60580568 205.48839017 -141.60549545 204.10420609 C-141.60534118 203.42360819 -141.6051869 202.74301029 -141.60502795 202.04178821 C-141.60417464 197.30978245 -141.60559983 192.57778074 -141.60797501 187.8457756 C-141.61090333 181.43841343 -141.60878879 175.03107074 -141.60308075 168.62371063 C-141.60177903 166.29724535 -141.60210203 163.97077838 -141.60434341 161.64431381 C-141.61516318 149.25348896 -141.47756631 136.87311717 -141.10421753 124.48745728 C-141.07595544 123.36404037 -141.04769335 122.24062346 -141.01857483 121.08316362 C-140.46497883 104.9438844 -137.55846526 87.89373947 -130.47167969 73.25878906 C-129.99988281 72.27821533 -129.99988281 72.27821533 -129.51855469 71.27783203 C-123.08536662 58.07839439 -115.20484622 45.45143642 -104.47167969 35.25878906 C-103.81167969 35.25878906 -103.15167969 35.25878906 -102.47167969 35.25878906 C-102.47167969 34.59878906 -102.47167969 33.93878906 -102.47167969 33.25878906 C-100.40449083 31.46621945 -98.33220344 29.78973283 -96.15917969 28.13378906 C-95.19794189 27.39672729 -95.19794189 27.39672729 -94.21728516 26.64477539 C-92.91231912 25.64679327 -91.60535382 24.65141988 -90.29638672 23.65869141 C-88.72781517 22.4552944 -87.18842445 21.21403064 -85.65527344 19.96582031 C-78.89830595 14.63245819 -71.78164966 11.66093539 -63.69873047 8.99414062 C-61.37423546 8.22661388 -59.06232889 7.4265362 -56.74902344 6.62597656 C-55.13654834 6.08450742 -53.52327866 5.54539811 -51.90917969 5.00878906 C-51.19117188 4.76241699 -50.47316406 4.51604492 -49.73339844 4.26220703 C-33.65216797 -0.89504928 -16.6690329 -0.02748985 0 0 Z " fill="#7DA948" transform="translate(588.4716796875,125.7412109375)"/>
<path d="M0 0 C1 1 1 1 1.11352539 3.95922852 C1.10567017 5.89946899 1.10567017 5.89946899 1.09765625 7.87890625 C1.0962413 8.5655687 1.09482635 9.25223114 1.09336853 9.95970154 C1.08775479 12.16067801 1.07520007 14.36155409 1.0625 16.5625 C1.05748676 18.05143083 1.05292355 19.54036324 1.04882812 21.02929688 C1.03778093 24.68623075 1.02050713 28.34310558 1 32 C2.18335938 32.10828125 3.36671875 32.2165625 4.5859375 32.328125 C8.6311307 32.83755928 11.92032652 34.00132201 15.625 35.75 C16.68976563 36.23984375 17.75453125 36.7296875 18.8515625 37.234375 C25.73858894 41.09657841 28.82919142 44.91787049 32.375 51.75 C38.91644794 63.62142024 48.37623915 73.63819172 59 82 C61.45185312 84.56613441 63.70665846 87.29207269 66 90 C66.49113281 90.54140625 66.98226562 91.0828125 67.48828125 91.640625 C71.83405771 96.51199684 73.58410959 101.28485093 73.37109375 107.86328125 C71.99987607 115.75860833 65.98039371 122.0847599 60 127 C55.70727634 129.95906194 51.29811096 131.85596932 46.01171875 131.5859375 C41.80951339 130.36199419 38.96687978 127.07558012 36 124 C32.3850356 120.28734391 32.3850356 120.28734391 28.1875 117.3125 C27.465625 116.879375 26.74375 116.44625 26 116 C26 115.34 26 114.68 26 114 C23.70800823 114.14063135 21.41640814 114.28765943 19.125 114.4375 C17.84882812 114.51871094 16.57265625 114.59992188 15.2578125 114.68359375 C12.11699848 114.79206027 12.11699848 114.79206027 10 116 C-0.58008552 116.74611008 -9.43461191 116.82333634 -17.8125 109.5625 C-18.8953125 108.2940625 -18.8953125 108.2940625 -20 107 C-20.70125 106.195625 -21.4025 105.39125 -22.125 104.5625 C-25.4439063 100.02666139 -27.27135637 95.30940543 -29 90 C-30.17718985 88.59567064 -30.17718985 88.59567064 -33.5 88.875 C-36.82281015 88.59567064 -36.82281015 88.59567064 -38 90 C-38.92940247 98.16801789 -36.95624221 104.49347688 -32.25 111.125 C-25.80778974 119.19355256 -18.07255673 123.94150619 -8.3125 127.25 C-4.23305846 129.40517666 -2.42023354 131.9785166 0.25 135.66796875 C2.35893714 138.47831579 4.73644407 140.82275205 7.25390625 143.26171875 C9.69949292 145.6963632 11.93497972 148.29041265 14.18359375 150.90625 C15.4273235 152.33988258 16.69155239 153.75591469 17.97265625 155.15625 C32.52727378 171.08500291 44.01279045 191.16278309 44.7265625 213.125 C43.90137838 216.39024468 42.67017746 217.87258852 40.03990364 219.94391823 C35.72632293 222.17710899 30.85571762 221.69906918 26.10717773 221.6628418 C24.91464386 221.67320969 23.72210999 221.68357758 22.49343872 221.69425964 C19.23497062 221.71667018 15.97751081 221.71662768 12.71901584 221.70455909 C9.99521574 221.69741265 7.27155631 221.7059369 4.54776722 221.71446449 C-1.87803418 221.73439281 -8.30346331 221.72887324 -14.72924805 221.70678711 C-21.35294312 221.68440727 -27.97566438 221.70204555 -34.59926754 221.73983639 C-40.29376246 221.771082 -45.98795611 221.7789835 -51.68252605 221.76788265 C-55.08044078 221.76140062 -58.4777933 221.76337284 -61.87564278 221.78720665 C-65.66333592 221.8071308 -69.44897448 221.78883111 -73.23657227 221.76049805 C-74.35931046 221.77421448 -75.48204865 221.78793091 -76.6388092 221.80206299 C-84.02442947 221.69144571 -84.02442947 221.69144571 -86.81663322 219.7124424 C-88.91154324 217.32026617 -89.9439808 215.31510801 -90.5 212.1875 C-89.83200531 207.92903387 -88.43521549 204.05360864 -87 200 C-83.02199497 188.06598492 -84.47871307 176.58976774 -87.99902344 164.83203125 C-97.67795419 132.48655487 -95.12280263 97.71432395 -79.11914062 67.97021484 C-69.27679125 50.64304218 -53.66988653 39.03998601 -34.8984375 33.0078125 C-31.85795291 32.08634 -31.85795291 32.08634 -29 30 C-27.6835955 27.33604386 -27.6835955 27.33604386 -26.5625 24.25 C-22.61613968 14.4424773 -12.73467384 -1.87274615 0 0 Z " fill="#FAFBF6" transform="translate(730,253)"/>
<path d="M0 0 C1.2659903 -0.00852997 2.53198059 -0.01705994 3.83633423 -0.02584839 C5.24214185 -0.02514934 6.64794937 -0.02422626 8.05375671 -0.02310181 C9.53213339 -0.02908525 11.01050693 -0.03589037 12.48887634 -0.04345703 C16.5075851 -0.06114499 20.52620872 -0.06581364 24.54495263 -0.0670886 C27.89973991 -0.06898694 31.25450733 -0.07634388 34.60928696 -0.08343279 C42.52552017 -0.09972566 50.44170789 -0.104601 58.35795593 -0.10317993 C66.52240876 -0.10197886 74.68659707 -0.12307169 82.85098296 -0.15466726 C89.86085831 -0.18082772 96.87064728 -0.1915473 103.88057107 -0.19026911 C108.06707468 -0.18975932 112.25334338 -0.19545135 116.43979836 -0.21662521 C120.3789076 -0.23600338 124.31755782 -0.23613526 128.25668335 -0.22159195 C129.70063638 -0.21950206 131.14461809 -0.22421557 132.58852196 -0.23631287 C134.56335099 -0.2517836 136.53833675 -0.24005007 138.51318359 -0.22705078 C139.6172823 -0.22814032 140.72138102 -0.22922985 141.85893726 -0.2303524 C146.47243817 0.51330119 149.56775664 2.84400051 152.77909851 6.15805054 C154.28293045 8.8740012 154.51817106 10.9188784 154.63456726 14.01742554 C154.70030945 15.00226929 154.76605164 15.98711304 154.83378601 17.00180054 C153.41702216 22.21948589 150.44607891 25.32556612 145.94706726 28.26742554 C141.09522473 29.4096991 136.30340397 29.31313873 131.34867859 29.22323608 C129.87778741 29.22589427 128.40689906 29.23203615 126.93603516 29.24137878 C122.9603857 29.25642998 118.98658096 29.22189483 115.01120973 29.17737174 C110.84425557 29.13837762 106.67732831 29.14262295 102.51022339 29.1414032 C95.51693054 29.13309582 88.52433746 29.09456261 81.53129578 29.03573608 C73.45022084 28.96792087 65.3697432 28.93809746 57.28840047 28.93076104 C48.67439986 28.92288352 40.06060868 28.89208167 31.44670272 28.8519671 C28.96799721 28.84165011 26.48930336 28.83508232 24.01058388 28.8291378 C20.11568584 28.81832993 16.22119288 28.79178411 12.32647514 28.75309563 C10.89826401 28.74115166 9.47000069 28.7342249 8.04174042 28.73270798 C6.09078509 28.72969424 4.13989281 28.70635649 2.18908691 28.68202209 C1.09793485 28.67439692 0.00678278 28.66677176 -1.1174345 28.65891552 C-6.15999653 27.98641894 -9.95665631 25.19126863 -13.09590149 21.20492554 C-15.13031014 17.08628598 -14.88804809 12.69287935 -14.05293274 8.26742554 C-10.93563616 2.28174199 -6.53409076 0.01985574 0 0 Z " fill="#FAFBF5" transform="translate(637.0529327392578,486.7325744628906)"/>
<path d="M0 0 C4.99810522 0.72699712 8.5570642 3.34663533 12.4375 6.5 C13.80702673 9.23905345 13.56371361 11.47087332 13.4375 14.5 C13.1075 15.16 12.7775 15.82 12.4375 16.5 C11.7775 16.5 11.1175 16.5 10.4375 16.5 C10.19 17.16 9.9425 17.82 9.6875 18.5 C8.4375 21.5 8.4375 21.5 6.625 24.9375 C2.54302127 33.0097276 -0.42579075 41.74153578 -2.1640625 50.61328125 C-2.73492647 53.31649003 -3.68957304 55.88121913 -4.5625 58.5 C-5.59395866 63.43489362 -5.70830293 68.17280699 -5.6953125 73.1875 C-5.69626923 74.00822998 -5.69722595 74.82895996 -5.69821167 75.67456055 C-5.69888941 77.40250729 -5.69706356 79.13045664 -5.69287109 80.85839844 C-5.68751709 83.49159506 -5.69282989 86.12462113 -5.69921875 88.7578125 C-5.6985579 90.44270871 -5.69727658 92.12760481 -5.6953125 93.8125 C-5.69733673 94.59391357 -5.69936096 95.37532715 -5.70144653 96.18041992 C-5.6834781 100.40420661 -5.34684916 104.33398658 -4.5625 108.5 C-4.49861612 110.45740193 -4.47611831 112.41670147 -4.5 114.375 C-4.50902344 115.34179688 -4.51804687 116.30859375 -4.52734375 117.3046875 C-4.53894531 118.02914062 -4.55054688 118.75359375 -4.5625 119.5 C-5.2225 119.5 -5.8825 119.5 -6.5625 119.5 C-6.871875 120.139375 -7.18125 120.77875 -7.5 121.4375 C-8.5625 123.5 -8.5625 123.5 -9.5625 124.5 C-11.70703125 124.73828125 -11.70703125 124.73828125 -14.375 124.8125 C-15.24769531 124.84988281 -16.12039063 124.88726562 -17.01953125 124.92578125 C-20.48136655 124.34614984 -21.49931386 123.32330735 -23.5625 120.5 C-24.57421875 117.07421875 -24.57421875 117.07421875 -25.25 113.1875 C-25.48074219 111.91261719 -25.71148438 110.63773437 -25.94921875 109.32421875 C-27.33340615 100.6928846 -27.76163805 92.42043645 -27.75 83.6875 C-27.75006042 82.9983551 -27.75012085 82.30921021 -27.75018311 81.59918213 C-27.71634244 54.53845256 -27.71634244 54.53845256 -23.5625 44.5 C-23.00114273 42.08783115 -22.46177802 39.67049853 -21.9375 37.25 C-19.46744539 26.78852056 -12.15929203 2.37254479 0 0 Z " fill="#F8FAF0" transform="translate(631.5625,294.5)"/>
<path d="M0 0 C-0.33 0.99 -0.66 1.98 -1 3 C-1.66 3 -2.32 3 -3 3 C-4.06790623 5.13089123 -5.13018566 7.26423822 -6.18359375 9.40234375 C-7.04301869 11.13993499 -7.91477006 12.87146813 -8.796875 14.59765625 C-10.0612006 17.04966823 -10.0612006 17.04966823 -11.1875 19.875 C-13.70955646 22.83189378 -16.51612495 23.60086952 -20.12109375 24.91796875 C-28.70749621 28.14515122 -35.88392002 32.25431837 -42.6484375 38.4609375 C-45.65130696 40.42627067 -47.47451713 40.41138606 -51 40 C-53.6875 38.25 -53.6875 38.25 -56 36 C-56.598125 35.4225 -57.19625 34.845 -57.8125 34.25 C-59.64259774 30.78244638 -60.06565967 27.72980886 -59 24 C-56.75348399 21.07952918 -54.00238917 19.10358477 -51 17 C-50.19046875 16.4121875 -49.3809375 15.824375 -48.546875 15.21875 C-35.23775425 6.13348194 -16.29741555 -1.38048696 0 0 Z " fill="#F9FBF3" transform="translate(703,254)"/>
<path d="M0 0 C3.43075662 3.11678113 5.74885829 6.55301197 8 10.5625 C8.35102783 11.18600342 8.70205566 11.80950684 9.0637207 12.4519043 C12.00574489 17.79873728 14.20648649 23.1617008 16 29 C16.20222168 29.6384082 16.40444336 30.27681641 16.61279297 30.93457031 C17.29612117 33.09852664 17.96341081 35.26680347 18.625 37.4375 C18.8314917 38.10499268 19.0379834 38.77248535 19.25073242 39.46020508 C22.79275312 51.46220044 23.32976823 63.35901969 23.4140625 75.77734375 C23.4331501 77.61832309 23.45287301 79.45929593 23.47315979 81.30026245 C23.52629813 86.4241794 23.56564943 91.54811995 23.60149765 96.67218399 C23.62511609 99.95362962 23.65192522 103.23503518 23.67959595 106.51644897 C24.07568548 154.19786539 24.13613352 201.88205768 24.17793798 249.56486505 C24.18455243 256.74718019 24.19571944 263.92947947 24.20855713 271.11178589 C24.22415048 279.99485011 24.23172468 288.87788329 24.22985047 297.76096153 C24.22899125 302.3615878 24.23114828 306.96215567 24.24185371 311.56277084 C24.29774978 337.14904742 24.33429278 361.36257662 15.625 385.75 C15.34503174 386.542854 15.06506348 387.33570801 14.77661133 388.15258789 C12.78017526 393.54968975 10.22835357 398.23985058 7 403 C5.768606 400.53721199 5.92840804 398.7204945 6 396 C6.99 396 7.98 396 9 396 C9.103125 395.071875 9.20625 394.14375 9.3125 393.1875 C10.52505311 384.8680384 12.97057975 377.36411288 17 370 C17.66 370 18.32 370 19 370 C20.00548586 363.33555332 20.14575293 356.82717847 20.14044189 350.09382629 C20.14341302 348.90941049 20.14638414 347.72499468 20.1494453 346.50468749 C20.15659389 343.23403716 20.15930215 339.96341895 20.16004276 336.69276202 C20.16190197 333.15803803 20.16945387 329.62332524 20.17617798 326.08860779 C20.18972981 318.36477889 20.19578182 310.64095521 20.20018864 302.9171164 C20.20295783 298.08525817 20.20719654 293.25340192 20.21169281 288.42154503 C20.22388408 275.01929379 20.23418191 261.61704414 20.2375679 248.21478748 C20.23778747 247.35780877 20.23800703 246.50083006 20.23823325 245.61788229 C20.23845153 244.75894693 20.23866981 243.90001156 20.2388947 243.01504785 C20.23933815 241.27476172 20.23978472 239.53447558 20.24023438 237.79418945 C20.2404558 236.93096247 20.24067723 236.06773549 20.24090537 235.17835011 C20.24484586 221.21885769 20.26227757 207.25941771 20.2855939 193.29994551 C20.30939009 178.93600115 20.32177359 164.57208299 20.32293582 150.20811862 C20.32384824 142.15638954 20.32949001 134.1047287 20.34775543 126.05301857 C20.36326884 119.19060212 20.36821164 112.32827499 20.36001733 105.46584431 C20.35614938 101.97358528 20.35684744 98.48150544 20.37107468 94.98926926 C20.43314 76.62016001 20.15626411 58.38152232 14.68359375 40.6875 C13.49186787 36.00231484 13.1061647 31.18443522 12.625 26.3828125 C11.98908831 22.9409405 10.99065854 20.84534345 9 18 C8.34 18.33 7.68 18.66 7 19 C6.34 16.36 5.68 13.72 5 11 C3.68 10.67 2.36 10.34 1 10 C1 8.68 1 7.36 1 6 C-0.4166747 4.2488427 -0.4166747 4.2488427 -2 3 C-1.34 3 -0.68 3 0 3 C0 2.01 0 1.02 0 0 Z " fill="#A6BA86" transform="translate(937,178)"/>
<path d="M0 0 C1.06915445 -0.00226556 2.1383089 -0.00453111 3.23986197 -0.00686532 C6.78634343 -0.0131447 10.33278609 -0.01237992 13.87927246 -0.0115509 C16.43609669 -0.01454595 18.99292046 -0.01794928 21.54974365 -0.02172852 C27.74979781 -0.02961968 33.94983798 -0.03278128 40.14989668 -0.03334089 C45.1877163 -0.03381753 50.22553281 -0.03587959 55.26335144 -0.03904152 C69.55994997 -0.04783166 83.85654102 -0.05246277 98.15314227 -0.05171105 C98.92192539 -0.05167109 99.69070851 -0.05163113 100.48278809 -0.05158997 C101.25251267 -0.05154909 102.02223725 -0.0515082 102.81528682 -0.05146609 C115.31809671 -0.05105873 127.82087662 -0.06065494 140.32367784 -0.07472833 C153.17458022 -0.08907926 166.02546794 -0.09599942 178.87637854 -0.09513456 C186.08632522 -0.09480244 193.29624035 -0.09755696 200.50617981 -0.10831261 C207.27613395 -0.11834801 214.04601018 -0.1180957 220.81597137 -0.11079597 C223.30409085 -0.10974639 225.79221443 -0.11213501 228.28032684 -0.11815643 C231.66775863 -0.12582576 235.0549564 -0.12126538 238.44238281 -0.11352539 C239.93009744 -0.12124074 239.93009744 -0.12124074 241.44786692 -0.12911195 C242.8072369 -0.12221375 242.8072369 -0.12221375 244.19406891 -0.1151762 C244.97586344 -0.11539357 245.75765798 -0.11561094 246.56314325 -0.11583489 C248.98066471 0.16474881 250.61437232 0.93070017 252.71325684 2.13371277 C252.14747848 2.13468958 251.58170013 2.13566639 250.99877697 2.13667279 C217.45440478 2.19496477 183.91010525 2.26877664 150.36581409 2.36269905 C146.3366905 2.373967 142.30756656 2.38510549 138.27844238 2.39616394 C137.07527051 2.39946947 137.07527051 2.39946947 135.84779214 2.40284177 C122.86586392 2.43819895 109.88393575 2.46307199 96.90197725 2.48405979 C83.57791908 2.50583443 70.25392331 2.53890064 56.92991823 2.58241433 C48.71054358 2.60890241 40.49124666 2.62661871 32.27183145 2.63305881 C26.63286938 2.6383214 20.99400505 2.65456759 15.35509539 2.67937843 C12.10336953 2.69336372 8.85185262 2.70094536 5.60009193 2.69872093 C2.06913301 2.6970682 -1.46128723 2.71376865 -4.99217224 2.73498535 C-6.52284652 2.72771399 -6.52284652 2.72771399 -8.08444351 2.72029573 C-13.59620755 2.77487667 -18.16381805 3.41639808 -23.32444292 5.39382428 C-25.29385999 6.13639618 -27.24429644 6.63419886 -29.28674316 7.13371277 C-30.21486816 7.48433777 -31.14299316 7.83496277 -32.09924316 8.19621277 C-35.63197286 9.23525091 -38.62376523 9.28023189 -42.28674316 9.13371277 C-42.28674316 9.79371277 -42.28674316 10.45371277 -42.28674316 11.13371277 C-43.93674316 11.46371277 -45.58674316 11.79371277 -47.28674316 12.13371277 C-47.61674316 11.14371277 -47.94674316 10.15371277 -48.28674316 9.13371277 C-44.37731199 7.7989731 -40.45817911 6.49521618 -36.53674316 5.19621277 C-35.44490723 4.82302917 -34.35307129 4.44984558 -33.22814941 4.06535339 C-32.1388916 3.70763855 -31.04963379 3.34992371 -29.92736816 2.98136902 C-28.45058594 2.48648987 -28.45058594 2.48648987 -26.94396973 1.98161316 C-18.15120567 -0.05692286 -8.9891773 -0.01429279 0 0 Z " fill="#789A51" transform="translate(570.2867431640625,127.86628723144531)"/>
<path d="M0 0 C2.05189004 0.00028285 4.10378018 0.00012224 6.15567017 -0.0004425 C11.66683426 -0.00072667 17.1779761 0.00510797 22.68913507 0.01213145 C28.4706425 0.01842889 34.25215056 0.01897381 40.03366089 0.02015686 C50.95535061 0.02325148 61.87703019 0.03143941 72.79871547 0.04150635 C85.24387661 0.05272588 97.68903825 0.05819259 110.1342032 0.06320179 C135.71040538 0.07362379 161.28659861 0.09118664 186.86279297 0.11352539 C186.86279297 0.77352539 186.86279297 1.43352539 186.86279297 2.11352539 C165.55194826 3.4243669 144.22894642 3.26138495 122.88773322 3.24785089 C117.57137996 3.24528777 112.25502827 3.24767524 106.93867493 3.24923706 C98.0319487 3.2510453 89.12523082 3.24868588 80.21850586 3.24389648 C69.94299267 3.23843465 59.66749927 3.24023582 49.39198655 3.24572289 C40.52519617 3.2502666 31.65841172 3.25089906 22.79162055 3.24828422 C17.51437894 3.24673117 12.23714663 3.24650138 6.95990562 3.24982071 C2.0094612 3.25271851 -2.94095771 3.25068876 -7.89139938 3.24492645 C-9.70134501 3.24361002 -11.51129281 3.24397389 -13.32123756 3.24618912 C-21.98206645 3.25580899 -30.52960651 3.21487136 -39.13720703 2.11352539 C-39.13720703 1.78352539 -39.13720703 1.45352539 -39.13720703 1.11352539 C-26.07757571 0.23552763 -13.08651238 -0.02565469 0 0 Z " fill="#7D9D53" transform="translate(629.13720703125,636.886474609375)"/>
<path d="M0 0 C0.66 0 1.32 0 2 0 C2.04578079 36.93549989 2.08102091 73.8709955 2.10213066 110.80651802 C2.10463206 115.16739878 2.10722071 119.52827948 2.10986328 123.88916016 C2.1103879 124.75733057 2.11091252 125.62550099 2.11145304 126.5199796 C2.12015492 140.57604554 2.13592371 154.63209512 2.15430559 168.68815136 C2.17301067 183.11166725 2.18411801 197.53517457 2.18817699 211.95870209 C2.19092078 220.85830208 2.19958597 229.75785581 2.21583293 238.65744156 C2.2264073 244.76076558 2.22959959 250.86406571 2.22700275 256.96739823 C2.22572217 260.48833432 2.22768113 264.0091896 2.23841095 267.53011131 C2.24996744 271.35026351 2.24597119 275.17031075 2.24050903 278.99047852 C2.24633472 280.09944174 2.2521604 281.20840496 2.25816262 282.35097313 C2.23531958 288.25718505 1.7156096 293.34021289 0 299 C-0.66 299 -1.32 299 -2 299 C-2.33 300.65 -2.66 302.3 -3 304 C-3.66 303.67 -4.32 303.34 -5 303 C-4.01 299.04 -4.01 299.04 -3 295 C-2.34 295 -1.68 295 -1 295 C-1.01160156 294.22398437 -1.02320313 293.44796875 -1.03515625 292.6484375 C-1.04417969 291.56820313 -1.05320312 290.48796875 -1.0625 289.375 C-1.07410156 288.33085938 -1.08570313 287.28671875 -1.09765625 286.2109375 C-1.071093 282.87758943 -0.7943293 279.5989134 -0.50198364 276.27897644 C0.29065947 265.30737867 0.1395265 254.31980022 0.12939453 243.32543945 C0.13075143 240.84551467 0.13253298 238.36559009 0.13470459 235.88566589 C0.13877234 229.88140003 0.13820344 223.87715156 0.13529195 217.8728864 C0.13302513 212.9948127 0.13273091 208.11674251 0.13381577 203.23866844 C0.13404561 202.19372643 0.13404561 202.19372643 0.13428011 201.12767449 C0.13459985 199.71222916 0.13492407 198.29678383 0.1352527 196.8813385 C0.13809568 183.64930976 0.13483784 170.41728798 0.12945233 157.18526038 C0.1249745 145.83126713 0.12577055 134.47728409 0.13037109 123.12329102 C0.13571906 109.91858747 0.1378325 96.71388997 0.13475883 83.50918549 C0.13444029 82.10257638 0.13412592 80.69596726 0.13381577 79.28935814 C0.13366149 78.59735432 0.13350721 77.90535049 0.13334826 77.19237686 C0.13248459 72.31446611 0.13394255 67.43655921 0.13629532 62.55864906 C0.13938738 56.00455346 0.13719615 49.45047424 0.13140106 42.89637947 C0.1300747 40.48685488 0.13046549 38.07732867 0.13266373 35.66780472 C0.1353797 32.38966426 0.13198869 29.11158672 0.12698364 25.83345032 C0.12921436 24.87121955 0.13144509 23.90898878 0.13374341 22.9175995 C0.12983178 21.60486693 0.12983178 21.60486693 0.12584114 20.26561451 C0.12567879 19.5088265 0.12551644 18.75203849 0.12534916 17.97231752 C0.0707314 15.78649487 0.0707314 15.78649487 -1 13 C-0.67 12.67 -0.34 12.34 0 12 C0.07244053 9.98035801 0.08377188 7.95832876 0.0625 5.9375 C0.05347656 4.83277344 0.04445313 3.72804687 0.03515625 2.58984375 C0.02355469 1.73519531 0.01195312 0.88054687 0 0 Z " fill="#7E9E52" transform="translate(956,249)"/>
<path d="M0 0 C0.99 0.33 1.98 0.66 3 1 C0.81041226 3.66918959 -0.37092023 4.88920883 -3.82641697 5.49777794 C-4.92498492 5.4966884 -6.02355288 5.49559887 -7.15541077 5.49447632 C-8.41869705 5.5028653 -9.68198334 5.51125427 -10.98355103 5.51989746 C-12.38104556 5.50893101 -13.77853701 5.49756507 -15.17602539 5.48583984 C-16.64956499 5.48798601 -18.12310294 5.49186416 -19.59663391 5.49734497 C-23.59663767 5.5070391 -27.59619513 5.49173507 -31.59614491 5.47143888 C-35.78011014 5.45387453 -39.96406145 5.45739282 -44.14805603 5.4581604 C-51.17340567 5.45628737 -58.19858253 5.43892215 -65.22387695 5.41162109 C-73.35028558 5.38015801 -81.47650505 5.36962532 -89.60297018 5.3710922 C-97.41661398 5.37231221 -105.23019607 5.36210714 -113.04382133 5.34550858 C-116.37111327 5.33844131 -119.69838337 5.33478186 -123.02568245 5.33372116 C-126.94173689 5.3317144 -130.85763206 5.31952219 -134.77363396 5.29938889 C-136.21238098 5.29353977 -137.65114634 5.29108798 -139.08990479 5.29224396 C-141.05047802 5.29322323 -143.01104428 5.28069304 -144.97157288 5.26742554 C-146.61885927 5.262398 -146.61885927 5.262398 -148.29942417 5.25726891 C-151 5 -151 5 -154 3 C-103.18 2.67 -52.36 2.34 0 2 C0 1.34 0 0.68 0 0 Z " fill="#DCE9C3" transform="translate(784,510)"/>
<path d="M0 0 C0.99 0.495 0.99 0.495 2 1 C-3.48107777 4.69743357 -8.9332462 7.39561137 -15.125 9.6875 C-15.89714844 9.98205078 -16.66929687 10.27660156 -17.46484375 10.58007812 C-31.33350932 15.83694029 -44.32622339 17.31248551 -59.1484375 17.1953125 C-60.54090163 17.19156883 -61.93336844 17.18872829 -63.32583618 17.18673706 C-66.93920544 17.17920693 -70.55240637 17.15965393 -74.16571045 17.1373291 C-77.87347132 17.11663767 -81.58126017 17.10768625 -85.2890625 17.09765625 C-92.52611728 17.07639456 -99.7630348 17.04239226 -107 17 C-107 16.67 -107 16.34 -107 16 C-105.91910599 15.97240852 -105.91910599 15.97240852 -104.81637573 15.94425964 C-97.96261408 15.7669601 -91.10930736 15.57688863 -84.25628471 15.37313366 C-80.73463947 15.26886059 -77.2130003 15.16920815 -73.69091797 15.08081055 C-69.62417733 14.9785263 -65.55831136 14.8548967 -61.4921875 14.73046875 C-60.25201874 14.70220505 -59.01184998 14.67394135 -57.73410034 14.64482117 C-47.23875392 14.29664955 -36.9633426 12.82023106 -27.1953125 8.82421875 C-20.9493226 6.47919407 -14.3325867 4.52745976 -7.7421875 3.484375 C-4.62364335 2.93352105 -2.67599911 1.63533279 0 0 Z " fill="#7D9B54" transform="translate(900,623)"/>
<path d="M0 0 C2.35163719 0.64129409 2.35163719 0.64129409 4.66337585 -0.09327698 C8.59053821 -0.73258248 11.54282787 0.37198886 15.35087585 1.46922302 C15.68087585 0.80922302 16.01087585 0.14922302 16.35087585 -0.53077698 C17.34087585 -0.20077698 18.33087585 0.12922302 19.35087585 0.46922302 C20.8917144 0.56103522 22.43621135 0.59712769 23.9797821 0.59861755 C24.91926697 0.60176971 25.85875183 0.60492188 26.82670593 0.60816956 C28.35460754 0.60513321 28.35460754 0.60513321 29.91337585 0.60203552 C31.50411926 0.60347061 31.50411926 0.60347061 33.1269989 0.60493469 C35.38326578 0.60561638 37.6395346 0.60376288 39.89579773 0.59959412 C43.28191294 0.59433023 46.66789026 0.59949487 50.05400085 0.60594177 C60.79306488 0.60865916 71.49184 0.51302639 82.20988464 -0.20884705 C88.91812645 -0.64757622 95.70766226 -0.68306893 102.35087585 0.46922302 C103.34087585 1.45922302 103.34087585 1.45922302 104.35087585 2.46922302 C54.19087585 2.46922302 4.03087585 2.46922302 -47.64912415 2.46922302 C-47.64912415 2.13922302 -47.64912415 1.80922302 -47.64912415 1.46922302 C-41.33238179 1.15745779 -35.01523173 0.85530793 -28.69770813 0.55979919 C-26.54916501 0.45816686 -24.40072434 0.35434387 -22.25239563 0.24827576 C-19.16222647 0.09608939 -16.07177307 -0.04818311 -12.9811554 -0.19093323 C-12.02264175 -0.23984207 -11.06412811 -0.28875092 -10.0765686 -0.33914185 C-9.17601242 -0.37925888 -8.27545624 -0.41937592 -7.34761047 -0.46070862 C-6.55929337 -0.49845901 -5.77097626 -0.53620941 -4.95877075 -0.57510376 C-2.64912415 -0.53077698 -2.64912415 -0.53077698 0 0 Z " fill="#77974F" transform="translate(678.6491241455078,483.53077697753906)"/>
<path d="M0 0 C2.62857482 0.45061283 4.88040392 0.94505045 7.3125 2.0625 C11.00064955 3.3490638 14.10366561 3.13207913 18 3 C18 3.99 18 4.98 18 6 C20.64 6 23.28 6 26 6 C26 6.66 26 7.32 26 8 C27.051875 7.95875 28.10375 7.9175 29.1875 7.875 C32.8933055 7.99650182 34.65049251 8.64424697 38 10 C46.80276689 11.38838821 55.67758992 11.11127268 64.5625 11.0625 C66.15950381 11.05747543 67.75650914 11.05291421 69.35351562 11.04882812 C73.23571533 11.03789728 77.11784051 11.02068533 81 11 C81 11.33 81 11.66 81 12 C83.97 12.33 86.94 12.66 90 13 C90 13.33 90 13.66 90 14 C83.25971764 14.05117043 76.51948632 14.08592878 69.77905273 14.10986328 C67.49127328 14.11985288 65.20350636 14.13344917 62.91577148 14.15087891 C47.07721693 14.26843203 32.71143871 14.17966738 17.6875 8.625 C16.44516602 8.18800781 16.44516602 8.18800781 15.17773438 7.7421875 C9.90273569 5.8466797 4.96756801 3.59525417 0 1 C0 0.67 0 0.34 0 0 Z " fill="#82A059" transform="translate(510,626)"/>
<path d="M0 0 C2.95970148 4.43955222 3.23512958 8.13294208 3.4375 13.4375 C3.49808594 14.54996094 3.55867187 15.66242188 3.62109375 16.80859375 C2.9309774 20.3546633 1.87551326 21.75347161 -0.95149612 23.9609127 C-5.30356804 26.16846656 -10.20266698 25.6435978 -14.97216797 25.56762695 C-16.77301598 25.56872215 -16.77301598 25.56872215 -18.61024475 25.56983948 C-21.88914106 25.56696019 -25.16695968 25.54194906 -28.44564199 25.50696969 C-31.87689084 25.47563655 -35.30816263 25.47277002 -38.73953247 25.46684265 C-45.23128236 25.45132445 -51.72260943 25.41032403 -58.21417344 25.3600952 C-65.60709874 25.30413819 -73.00004463 25.27669936 -80.39312911 25.25161803 C-95.59565468 25.19940589 -110.79778498 25.11150365 -126 25 C-126 24.67 -126 24.34 -126 24 C-93 24 -60 24 -26 24 C-26 23.34 -26 22.68 -26 22 C-18.08 21.67 -10.16 21.34 -2 21 C-1.505 19.515 -1.505 19.515 -1 18 C-0.34 18 0.32 18 1 18 C0.835 16.700625 0.67 15.40125 0.5 14.0625 C-0.0315638 9.34580713 -0.07529541 4.74361065 0 0 Z " fill="#EDF7D6" transform="translate(771,449)"/>
<path d="M0 0 C31.06957692 -0.66371621 61.19161304 -0.2072239 88 18 C87.67 18.66 87.34 19.32 87 20 C85.02 19.67 83.04 19.34 81 19 C81 18.01 81 17.02 81 16 C80.319375 15.731875 79.63875 15.46375 78.9375 15.1875 C76.81946759 14.33127413 74.73854781 13.3811744 72.6875 12.375 C68.38206743 10.76958447 65.54386605 10.76084916 61 11 C61 10.34 61 9.68 61 9 C60.0925 9.04125 59.185 9.0825 58.25 9.125 C55.0046245 9.00017787 53.75803416 8.51247035 51 7 C49.34259285 6.62331656 47.67654729 6.27942455 46 6 C46 5.34 46 4.68 46 4 C45.13375 4.2784375 45.13375 4.2784375 44.25 4.5625 C41.73071292 5.05236138 40.42493435 4.75779198 38 4 C35.22581622 3.21162411 32.76494397 2.8718652 29.8828125 2.8671875 C29.11066406 2.86589844 28.33851563 2.86460937 27.54296875 2.86328125 C26.34607422 2.86908203 26.34607422 2.86908203 25.125 2.875 C24.33480469 2.87113281 23.54460938 2.86726562 22.73046875 2.86328125 C18.3748038 2.87052861 14.28839498 3.13128976 10 4 C10 3.67 10 3.34 10 3 C6.7 2.34 3.4 1.68 0 1 C0 0.67 0 0.34 0 0 Z " fill="#7D9D55" transform="translate(819,128)"/>
<path d="M0 0 C19.60157698 -0.07006911 39.20312857 -0.12297789 58.8048048 -0.15543652 C67.90612664 -0.17090794 77.00737068 -0.19200273 86.10864258 -0.22631836 C94.04095601 -0.25621228 101.9732131 -0.275573 109.9055813 -0.28226548 C114.10604693 -0.28617776 118.30635137 -0.29537785 122.50676537 -0.31719017 C126.46051816 -0.33755523 130.41404337 -0.34383379 134.36784363 -0.33932304 C135.81867014 -0.34014824 137.26950427 -0.34611391 138.72028542 -0.35761642 C140.70219538 -0.37255897 142.6842275 -0.3671621 144.66618347 -0.36076355 C145.77510043 -0.36352893 146.88401739 -0.36629431 148.0265379 -0.36914349 C151.36294614 0.04505832 153.27120118 1.0839313 156 3 C152.17100424 4.27633192 150.76846558 3.26548574 147 2 C143.91362586 1.70892651 143.91362586 1.70892651 140.65982056 1.75949097 C138.77950638 1.75536697 138.77950638 1.75536697 136.86120605 1.75115967 C135.48510645 1.75823653 134.10900783 1.76550612 132.73291016 1.77294922 C131.27391569 1.77351378 129.81492065 1.77319589 128.35592651 1.77206421 C124.40594448 1.77149145 120.45608443 1.78323333 116.5061307 1.79721212 C112.37415978 1.80973226 108.24218593 1.810891 104.11019897 1.81326294 C96.2905263 1.81947394 88.4709097 1.83587961 80.65126169 1.85596192 C71.74682585 1.87833275 62.8423873 1.88931733 53.93793035 1.89935279 C35.62525514 1.92024617 17.31263208 1.95541476 -1 2 C-0.67 1.34 -0.34 0.68 0 0 Z " fill="#E5F3CE" transform="translate(631,487)"/>
<path d="M0 0 C0 0.66 0 1.32 0 2 C0.66 2 1.32 2 2 2 C2 11.9 2 21.8 2 32 C2.66 32 3.32 32 4 32 C4 32.66 4 33.32 4 34 C2.68 34 1.36 34 0 34 C-0.495 18.655 -0.495 18.655 -1 3 C-10.87953726 4.41136247 -15.31189725 8.7742767 -21.5546875 16.265625 C-23 18 -23 18 -25 20 C-25.625 17.6875 -25.625 17.6875 -26 15 C-25.34 14.01 -24.68 13.02 -24 12 C-23.34 12 -22.68 12 -22 12 C-22 11.34 -22 10.68 -22 10 C-21.34 10 -20.68 10 -20 10 C-20 9.34 -20 8.68 -20 8 C-14.03587522 2.32680814 -8.44232131 -0.51687682 0 0 Z " fill="#8AA663" transform="translate(731,251)"/>
<path d="M0 0 C3.5625 0.3125 3.5625 0.3125 5.19140625 1.5625 C6.75241762 3.55490198 7.35894638 5.20025272 8.0625 7.625 C9.23025194 11.40629199 10.6805105 14.81737664 12.5625 18.3125 C11.9025 18.3125 11.2425 18.3125 10.5625 18.3125 C10.8925 19.3025 11.2225 20.2925 11.5625 21.3125 C10.9025 21.3125 10.2425 21.3125 9.5625 21.3125 C9.459375 20.549375 9.35625 19.78625 9.25 19 C8.81691467 16.30361458 8.81691467 16.30361458 7.09375 14.9375 C5.16977486 12.89573047 4.89011528 11.3590734 4.375 8.625 C4.21644531 7.81675781 4.05789063 7.00851562 3.89453125 6.17578125 C3.78496094 5.56089844 3.67539062 4.94601562 3.5625 4.3125 C1.9125 3.9825 0.2625 3.6525 -1.4375 3.3125 C-2.0975 5.9525 -2.7575 8.5925 -3.4375 11.3125 C-2.7775 11.3125 -2.1175 11.3125 -1.4375 11.3125 C-1.334375 11.828125 -1.23125 12.34375 -1.125 12.875 C-0.19875077 16.15897454 1.19907272 19.18797914 2.5625 22.3125 C2.8925 23.3025 3.2225 24.2925 3.5625 25.3125 C4.2225 25.3125 4.8825 25.3125 5.5625 25.3125 C7.1875 26.6875 7.1875 26.6875 8.5625 28.3125 C8.5625 28.9725 8.5625 29.6325 8.5625 30.3125 C10.2125 30.6425 11.8625 30.9725 13.5625 31.3125 C12.5725 31.9725 11.5825 32.6325 10.5625 33.3125 C3.11485089 27.26364793 -3.71269708 21.14387665 -5.4375 11.3125 C-5.66681075 8.29158016 -5.85396439 5.31961787 -5.4375 2.3125 C-3.4375 0.3125 -3.4375 0.3125 0 0 Z " fill="#869F5D" transform="translate(696.4375,340.6875)"/>
<path d="M0 0 C0.33 0 0.66 0 1 0 C0.98428955 1.41925781 0.98428955 1.41925781 0.96826172 2.8671875 C0.93138673 6.46057171 0.90886077 10.05394022 0.89013672 13.64746094 C0.8802297 15.18720331 0.86670031 16.72692767 0.84912109 18.26660156 C0.71574939 30.27005454 0.97453527 42.30502557 4 54 C4.11637036 58.64650239 3.53099634 62.1150061 1.125 66.125 C-3.58415493 68.95049296 -7.747734 67.92903479 -13 67 C-13.495 67.99 -13.495 67.99 -14 69 C-14.33 68.01 -14.66 67.02 -15 66 C-14.24074219 65.97421875 -13.48148438 65.9484375 -12.69921875 65.921875 C-11.70535156 65.86515625 -10.71148438 65.8084375 -9.6875 65.75 C-8.70136719 65.70359375 -7.71523438 65.6571875 -6.69921875 65.609375 C-3.38302755 64.86071244 -2.80161668 63.77171797 -1 61 C-0.34 61 0.32 61 1 61 C0.85780029 60.00121826 0.71560059 59.00243652 0.5690918 57.97338867 C-0.83194776 47.55105199 -1.2855014 37.32164568 -1.20581055 26.81176758 C-1.18723335 24.27610457 -1.18530401 21.74080303 -1.18554688 19.20507812 C-1.18064048 17.57030936 -1.17481604 15.93554304 -1.16796875 14.30078125 C-1.16685593 13.55387527 -1.1657431 12.8069693 -1.16459656 12.03742981 C-1.12740609 7.92502084 -0.79611191 4.03535426 0 0 Z " fill="#8FA86A" transform="translate(626,353)"/>
<path d="M0 0 C0.99 0.33 1.98 0.66 3 1 C2.48567417 2.92418368 1.93724842 4.83926961 1.375 6.75 C1.07335937 7.81734375 0.77171875 8.8846875 0.4609375 9.984375 C-1.86593503 14.78743809 -5.35152198 16.38531328 -10.2265625 18.203125 C-11.34804688 18.54859375 -12.46953125 18.8940625 -13.625 19.25 C-22.5326633 22.28841905 -29.5591203 27.37567309 -37 33 C-37.33 32.01 -37.66 31.02 -38 30 C-37.01 28.515 -37.01 28.515 -36 27 C-35.34 27 -34.68 27 -34 27 C-33.67 26.34 -33.34 25.68 -33 25 C-31.68 25 -30.36 25 -29 25 C-29 24.01 -29 23.02 -29 22 C-18.62642369 17.40774487 -18.62642369 17.40774487 -13 18 C-13 17.34 -13 16.68 -13 16 C-11.68 16 -10.36 16 -9 16 C-8.67 15.01 -8.34 14.02 -8 13 C-5.9375 12.3125 -5.9375 12.3125 -4 12 C-3.71125 10.7625 -3.4225 9.525 -3.125 8.25 C-2.38665206 5.27551258 -1.55525067 2.666144 0 0 Z " fill="#8AA561" transform="translate(703,270)"/>
<path d="M0 0 C0.33 0 0.66 0 1 0 C1.68462002 10.0410936 -2.02754227 19.43674917 -5.375 28.75 C-5.65480713 29.54180664 -5.93461426 30.33361328 -6.22290039 31.14941406 C-8.21835608 36.5481519 -10.77102687 41.23893704 -14 46 C-15.231394 43.53721199 -15.07159196 41.7204945 -15 39 C-14.01 39 -13.02 39 -12 39 C-11.896875 38.071875 -11.79375 37.14375 -11.6875 36.1875 C-10.47494689 27.8680384 -8.02942025 20.36411288 -4 13 C-3.34 13 -2.68 13 -2 13 C-1.34 8.71 -0.68 4.42 0 0 Z " fill="#A3BA81" transform="translate(958,535)"/>
<path d="M0 0 C1.00243756 3.15333352 0.95077388 5.28004393 0.2578125 8.5 C0.07911621 9.37817383 -0.09958008 10.25634766 -0.28369141 11.16113281 C-0.47882324 12.09795898 -0.67395508 13.03478516 -0.875 14 C-2.58683427 22.63848971 -3.51297876 31.02397726 -3.67138672 39.828125 C-3.81036558 45.81036558 -3.81036558 45.81036558 -6 48 C-6.90157202 43.39196521 -7.15749973 38.93108213 -7.125 34.25 C-7.12161621 33.54987793 -7.11823242 32.84975586 -7.11474609 32.12841797 C-6.96460938 16.96460938 -6.96460938 16.96460938 -4 14 C-3.41181945 12.01876024 -2.89991921 10.01430778 -2.4375 8 C-1.08520179 2.17040359 -1.08520179 2.17040359 0 0 Z " fill="#829E57" transform="translate(641,339)"/>
<path d="M0 0 C3.97493641 4.06939035 4.47953602 7.21764418 4.4375 12.6875 C4.58270698 19.06931047 5.60376379 23.60119161 8.94140625 29.1796875 C10 31 10 31 10 33 C11.32 33.33 12.64 33.66 14 34 C16.14285714 41.42857143 16.14285714 41.42857143 17 45 C6.48609061 35.17872514 -0.0770113 19.0589566 -1.08203125 4.88671875 C-1 2 -1 2 0 0 Z " fill="#90AF68" transform="translate(453,544)"/>
<path d="M0 0 C6.54432355 9.81648532 7.64839392 21.85533851 5.58984375 33.27539062 C4.59152948 37.9092982 3.35287791 42.45819557 2 47 C1.34 46.34 0.68 45.68 0 45 C0 43.68 0 42.36 0 41 C0.66 41 1.32 41 2 41 C1.7215625 39.7934375 1.7215625 39.7934375 1.4375 38.5625 C1.293125 37.716875 1.14875 36.87125 1 36 C1.495 35.505 1.495 35.505 2 35 C3.97992113 24.32136909 3.97992113 24.32136909 2.02734375 14.0625 C0.64662222 11.29055715 0.57568041 8.82709967 0.375 5.75 C0.30023437 4.67234375 0.22546875 3.5946875 0.1484375 2.484375 C0.09945312 1.66453125 0.05046875 0.8446875 0 0 Z " fill="#8AA565" transform="translate(640,414)"/>
<path d="M0 0 C3.43109403 3.11708766 5.74742494 6.55355031 8 10.5625 C8.34885254 11.17802734 8.69770508 11.79355469 9.05712891 12.42773438 C12.00469246 17.75787736 14.15000154 23.19817237 16 29 C16.433125 30.134375 16.86625 31.26875 17.3125 32.4375 C18 35 18 35 17 39 C16.01 36.36 15.02 33.72 14 31 C13.67 31 13.34 31 13 31 C12.896875 29.783125 12.79375 28.56625 12.6875 27.3125 C12.23780688 23.58930552 11.21617222 21.08337005 9 18 C8.34 18.33 7.68 18.66 7 19 C6.34 16.36 5.68 13.72 5 11 C3.68 10.67 2.36 10.34 1 10 C1 8.68 1 7.36 1 6 C-0.4166747 4.2488427 -0.4166747 4.2488427 -2 3 C-1.34 3 -0.68 3 0 3 C0 2.01 0 1.02 0 0 Z " fill="#ABC08A" transform="translate(937,178)"/>
<path d="M0 0 C0.66 0.33 1.32 0.66 2 1 C0.625 2.5 0.625 2.5 -1 4 C-1.66 4 -2.32 4 -3 4 C-3 4.66 -3 5.32 -3 6 C-3.8353125 6.0928125 -3.8353125 6.0928125 -4.6875 6.1875 C-7.95096487 7.33412279 -9.64054906 9.51955157 -12 12 C-15.00440021 14.00293347 -16.70993945 14.49271626 -20.1875 15.125 C-21.08855469 15.29257813 -21.98960937 15.46015625 -22.91796875 15.6328125 C-23.60503906 15.75398437 -24.29210937 15.87515625 -25 16 C-19.64896315 10.49607639 -15.13595555 6.90276158 -8 4 C-5.88691129 2.91283117 -3.78821801 1.8046133 -1.69921875 0.671875 C-1.13847656 0.45015625 -0.57773437 0.2284375 0 0 Z " fill="#829F56" transform="translate(519,138)"/>
<path d="M0 0 C0.33 0.66 0.66 1.32 1 2 C-0.41601714 2.48108275 -1.83284437 2.95978141 -3.25 3.4375 C-4.03890625 3.70433594 -4.8278125 3.97117188 -5.640625 4.24609375 C-7.74896928 4.91978654 -9.85389835 5.46459003 -12 6 C-12.928125 6.350625 -13.85625 6.70125 -14.8125 7.0625 C-18.34522969 8.10153814 -21.33702207 8.14651912 -25 8 C-25 8.66 -25 9.32 -25 10 C-26.65 10.33 -28.3 10.66 -30 11 C-30.33 10.01 -30.66 9.02 -31 8 C-26.96299988 6.65224236 -22.91972422 5.32437873 -18.875 4 C-17.73289062 3.6184375 -16.59078125 3.236875 -15.4140625 2.84375 C-13.75117187 2.30234375 -13.75117187 2.30234375 -12.0546875 1.75 C-11.03874512 1.41484375 -10.02280273 1.0796875 -8.97607422 0.734375 C-5.87283486 -0.03137922 -3.18330062 -0.13281046 0 0 Z " fill="#81A155" transform="translate(553,129)"/>
<path d="M0 0 C0.49628906 0.39832031 0.99257813 0.79664063 1.50390625 1.20703125 C9.96675727 7.80709153 16.09144484 9.34364311 26.671875 9.69140625 C30 10 30 10 33 12 C26.51485761 14.59405696 21.68875017 13.46949814 15 12 C13.906875 11.87625 12.81375 11.7525 11.6875 11.625 C7.18412805 10.5777042 2.79734448 7.72979264 0 4 C0 2.68 0 1.36 0 0 Z " fill="#819E57" transform="translate(709,359)"/>
<path d="M0 0 C0.66 0.33 1.32 0.66 2 1 C-3.48107777 4.69743357 -8.9332462 7.39561137 -15.125 9.6875 C-15.89714844 9.98205078 -16.66929687 10.27660156 -17.46484375 10.58007812 C-30.27103979 15.43421547 -30.27103979 15.43421547 -34 14 C-33.01 14 -32.02 14 -31 14 C-31 13.01 -31 12.02 -31 11 C-28.03 11 -25.06 11 -22 11 C-21.34 9.68 -20.68 8.36 -20 7 C-18.046875 5.98828125 -18.046875 5.98828125 -15.75 5.3125 C-14.945625 5.07144531 -14.14125 4.83039062 -13.3125 4.58203125 C-11 4 -11 4 -7.75 3.5 C-4.63519082 2.93367106 -2.67575021 1.63518068 0 0 Z " fill="#ACC38B" transform="translate(900,623)"/>
<path d="M0 0 C0.66 0 1.32 0 2 0 C1.608125 1.11375 1.21625 2.2275 0.8125 3.375 C-3.05001732 15.01773077 -6.3997428 26.8189377 -8 39 C-8.33 39 -8.66 39 -9 39 C-9.46344565 19.45804196 -9.46344565 19.45804196 -5 11 C-4.34 11 -3.68 11 -3 11 C-2.87625 10.113125 -2.7525 9.22625 -2.625 8.3125 C-2.05587264 5.29612498 -1.23385564 2.79673946 0 0 Z " fill="#86A45A" transform="translate(614,314)"/>
<path d="M0 0 C1.47930348 0.00540879 2.95887693 -0.01731288 4.4375 -0.0625 C9.38191397 -0.1293164 13.5390824 0.7695412 18 3 C17.67 3.66 17.34 4.32 17 5 C16.01 4.67 15.02 4.34 14 4 C14 3.34 14 2.68 14 2 C11.70800823 2.14063135 9.41640814 2.28765943 7.125 2.4375 C5.84882812 2.51871094 4.57265625 2.59992188 3.2578125 2.68359375 C0.11699848 2.79206027 0.11699848 2.79206027 -2 4 C-4.59609211 4.12514794 -7.15370467 4.18517357 -9.75 4.1875 C-10.80574219 4.20586914 -10.80574219 4.20586914 -11.8828125 4.22460938 C-16.31077388 4.23695499 -19.82608462 3.66037829 -24 2 C-20.90527467 1.03158255 -18.73788701 1.06366642 -15.5625 1.625 C-9.34683695 2.4578176 -6.46136377 -1.36682695 0 0 Z " fill="#E3EECD" transform="translate(742,365)"/>
<path d="M0 0 C5.15631461 4.61354465 6.65638888 8.00567456 7.4375 14.8125 C7.34849154 19.92554137 4.71304744 23.81415537 2 28 C0.875 26.25 0.875 26.25 0 24 C0.82421875 22.0390625 0.82421875 22.0390625 2 20 C3.69452155 12.73776478 2.59473203 6.8899664 0 0 Z " fill="#EAF3D7" transform="translate(796,344)"/>
<path d="M0 0 C5.19874111 0.62319294 9.58974058 2.24198042 14.375 4.25 C15.12579834 4.56138916 15.87659668 4.87277832 16.65014648 5.19360352 C21.77769169 7.36610309 26.43058185 9.79168513 31 13 C30.67 13.66 30.34 14.32 30 15 C27.03 14.505 27.03 14.505 24 14 C24 13.01 24 12.02 24 11 C23.319375 10.731875 22.63875 10.46375 21.9375 10.1875 C19.81946759 9.33127413 17.73854781 8.3811744 15.6875 7.375 C11.38206743 5.76958447 8.54386605 5.76084916 4 6 C4 5.34 4 4.68 4 4 C2.02 4 0.04 4 -2 4 C-1.34 3.67 -0.68 3.34 0 3 C0 2.01 0 1.02 0 0 Z " fill="#99B375" transform="translate(876,133)"/>
<path d="M0 0 C4.62 0 9.24 0 14 0 C14 0.66 14 1.32 14 2 C14.556875 2.061875 15.11375 2.12375 15.6875 2.1875 C21.31122699 4.16340408 25.23926392 10.51554838 29 15 C27.68 15.33 26.36 15.66 25 16 C24.46890625 15.30132812 23.9378125 14.60265625 23.390625 13.8828125 C22.68421875 12.97273438 21.9778125 12.06265625 21.25 11.125 C20.55390625 10.22007812 19.8578125 9.31515625 19.140625 8.3828125 C17.09310909 6.10364333 15.86305921 4.98065414 13 4 C11.68 4 10.36 4 9 4 C9 3.34 9 2.68 9 2 C6.03 1.67 3.06 1.34 0 1 C0 0.67 0 0.34 0 0 Z " fill="#8DA865" transform="translate(742,367)"/>
<path d="M0 0 C3.73062774 0.79942023 7.02646874 1.54433898 9.23046875 4.83984375 C9.70419922 5.87818359 9.70419922 5.87818359 10.1875 6.9375 C10.67283203 7.97197266 10.67283203 7.97197266 11.16796875 9.02734375 C11.85446708 10.65495717 12.44139411 12.32418233 13 14 C13.66 14.33 14.32 14.66 15 15 C15.625 17.5625 15.625 17.5625 16 20 C16.66 20 17.32 20 18 20 C20 22 20 22 20 25 C20.66 25 21.32 25 22 25 C22 25.66 22 26.32 22 27 C22.66 27 23.32 27 24 27 C23.67 27.99 23.34 28.98 23 30 C16.95517759 24.31075538 12.52553627 18.03085472 8.4375 10.8125 C6.00273132 6.53271771 3.74880821 3.18080697 0 0 Z " fill="#84A15E" transform="translate(752,292)"/>
<path d="M0 0 C0.66 0.33 1.32 0.66 2 1 C2 1.66 2 2.32 2 3 C2.66 3 3.32 3 4 3 C4 3.99 4 4.98 4 6 C4.66 6 5.32 6 6 6 C6 6.66 6 7.32 6 8 C6.61875 8.20625 7.2375 8.4125 7.875 8.625 C10.84653645 10.54775888 11.13024659 12.66594527 12 16 C12.66 16 13.32 16 14 16 C16.125 17.5625 16.125 17.5625 18 20 C18.25 23.75 18.25 23.75 18 27 C14.35270989 22.55249612 11.06675556 17.89951036 7.79882812 13.171875 C5.14397802 9.39681767 2.35670814 6.17055796 -1 3 C-0.67 2.01 -0.34 1.02 0 0 Z " fill="#84A15C" transform="translate(746,403)"/>
<path d="M0 0 C0.66 0.33 1.32 0.66 2 1 C2 1.99 2 2.98 2 4 C2.66 4 3.32 4 4 4 C10.49620061 27.08358663 10.49620061 27.08358663 10 38 C9.34 38 8.68 38 8 38 C7.99742187 37.27039063 7.99484375 36.54078125 7.9921875 35.7890625 C7.63544485 26.15701089 4.98244552 17.96792428 1.71142578 8.97314453 C0.75892515 6.33137717 -0.12469881 3.66818864 -1 1 C-0.67 0.67 -0.34 0.34 0 0 Z " fill="#7A9A51" transform="translate(766,431)"/>
<path d="M0 0 C0.99 0 1.98 0 3 0 C1.42593152 4.7312518 -1.18596321 8.35283308 -4.125 12.3125 C-4.61202393 12.97386963 -5.09904785 13.63523926 -5.60083008 14.31665039 C-9.33870983 19.3072316 -13.35032274 23.82994561 -18 28 C-18.66 27.67 -19.32 27.34 -20 27 C-19.3503125 26.39671875 -18.700625 25.7934375 -18.03125 25.171875 C-17.1959375 24.37265625 -16.360625 23.5734375 -15.5 22.75 C-14.6646875 21.96109375 -13.829375 21.1721875 -12.96875 20.359375 C-10.57287706 18.00027807 -10.57287706 18.00027807 -11 14 C-10.01 14 -9.02 14 -8 14 C-7.34 11.69 -6.68 9.38 -6 7 C-4.68 7 -3.36 7 -2 7 C-2.33 5.68 -2.66 4.36 -3 3 C-2.01 3 -1.02 3 0 3 C0 2.01 0 1.02 0 0 Z " fill="#B0C490" transform="translate(940,581)"/>
<path d="M0 0 C-0.33 0.66 -0.66 1.32 -1 2 C-3.97 2 -6.94 2 -10 2 C-10 2.99 -10 3.98 -10 5 C-19.58923141 7.71667939 -28.11859816 8.36901501 -38 8 C-38 7.67 -38 7.34 -38 7 C-32.06 6.505 -32.06 6.505 -26 6 C-26 5.67 -26 5.34 -26 5 C-24.62328125 4.72736328 -24.62328125 4.72736328 -23.21875 4.44921875 C-15.15202834 2.85163043 -15.15202834 2.85163043 -7.375 0.25 C-3.93418435 -1.02437617 -3.26941619 -1.05649257 0 0 Z " fill="#8AA564" transform="translate(879,632)"/>
<path d="M0 0 C2.62857482 0.45061283 4.88040392 0.94505045 7.3125 2.0625 C11.00064955 3.3490638 14.10366561 3.13207913 18 3 C18 3.99 18 4.98 18 6 C19.32 6 20.64 6 22 6 C22.33 6.66 22.66 7.32 23 8 C24.99291777 8.78344256 27.02051823 9.48016365 29.0625 10.125 C30.16722656 10.47820313 31.27195312 10.83140625 32.41015625 11.1953125 C33.26480469 11.46085938 34.11945312 11.72640625 35 12 C31.7097762 13.10279033 29.86709003 12.90109675 26.62109375 11.7421875 C25.78674805 11.44836182 24.95240234 11.15453613 24.09277344 10.85180664 C23.2165332 10.52946045 22.34029297 10.20711426 21.4375 9.875 C20.54450195 9.5545874 19.65150391 9.2341748 18.73144531 8.90405273 C12.33311101 6.5758539 6.09943511 4.03572803 0 1 C0 0.67 0 0.34 0 0 Z " fill="#BBCF9D" transform="translate(510,626)"/>
<path d="M0 0 C0.87441019 2.9345736 1.07414153 5.27097196 0.75 8.3125 C0.68296875 9.03050781 0.6159375 9.74851562 0.546875 10.48828125 C0 13 0 13 -1.44140625 16.203125 C-3.35718218 20.48330794 -4.00720546 24.82413648 -4.6875 29.4375 C-4.81705078 30.26443359 -4.94660156 31.09136719 -5.08007812 31.94335938 C-5.3949653 33.9609698 -5.69865138 35.9803231 -6 38 C-6.33 38 -6.66 38 -7 38 C-6.88562349 35.27001324 -6.75888594 32.5415418 -6.625 29.8125 C-6.5940625 29.04357422 -6.563125 28.27464844 -6.53125 27.48242188 C-6.31030608 23.19242739 -5.75526937 19.96189372 -4 16 C-3.212467 13.24864153 -2.54619456 10.46922858 -1.875 7.6875 C-1.69324219 6.94693359 -1.51148438 6.20636719 -1.32421875 5.44335938 C-0.8795787 3.629696 -0.43934255 1.81495392 0 0 Z " fill="#D5E2BA" transform="translate(612,323)"/>
<path d="M0 0 C0.33 0.99 0.66 1.98 1 3 C-0.60128615 5.16644597 -2.16477544 7.052215 -4 9 C-4.845625 9.9075 -5.69125 10.815 -6.5625 11.75 C-9 14 -9 14 -11.25 15 C-13.30277024 15.90274438 -13.30277024 15.90274438 -13.75 18.625 C-13.8325 19.40875 -13.915 20.1925 -14 21 C-14.99 21.33 -15.98 21.66 -17 22 C-14.00256332 13.32656619 -7.4209099 5.32783275 0 0 Z " fill="#E5F0CF" transform="translate(667,302)"/>
<path d="M0 0 C1.32 0.33 2.64 0.66 4 1 C3.62488281 1.52207031 3.24976563 2.04414063 2.86328125 2.58203125 C-1.20601937 8.43485405 -4.22914324 14.44067093 -7 21 C-7.33 21 -7.66 21 -8 21 C-8.23509196 16.18061476 -7.45184478 12.53701494 -6 8 C-5.34 8 -4.68 8 -4 8 C-3.67 6.35 -3.34 4.7 -3 3 C-2.01 2.67 -1.02 2.34 0 2 C0 1.34 0 0.68 0 0 Z " fill="#85A158" transform="translate(652,314)"/>
<path d="M0 0 C0.99 0.33 1.98 0.66 3 1 C4.6875 4.5625 4.6875 4.5625 6 8 C7.65 8 9.3 8 11 8 C11 8.66 11 9.32 11 10 C11.66 10 12.32 10 13 10 C13 10.66 13 11.32 13 12 C13.66 12.33 14.32 12.66 15 13 C14.67 13.66 14.34 14.32 14 15 C7.26923115 11.84401727 1.63048365 6.78591111 -4 2 C-3.34 1.67 -2.68 1.34 -2 1 C-1.34 1.33 -0.68 1.66 0 2 C0 1.34 0 0.68 0 0 Z " fill="#AAC28A" transform="translate(489,606)"/>
<path d="M0 0 C6.43974581 0.62320121 12.67572401 1.64008262 19 3 C19 4.32 19 5.64 19 7 C15.37 6.34 11.74 5.68 8 5 C8 4.34 8 3.68 8 3 C7.13375 3.2784375 7.13375 3.2784375 6.25 3.5625 C3.79307475 4.04023546 2.35602466 3.75729364 0 3 C0 2.01 0 1.02 0 0 Z " fill="#8CA765" transform="translate(857,129)"/>
<path d="M0 0 C0.33 0.66 0.66 1.32 1 2 C0.0625 4.125 0.0625 4.125 -1 6 C-1.66 6 -2.32 6 -3 6 C-2.773125 6.598125 -2.54625 7.19625 -2.3125 7.8125 C-2 10 -2 10 -3.25 11.75 C-5 13 -5 13 -8 13 C-8 14.65 -8 16.3 -8 18 C-8.99 17.67 -9.98 17.34 -11 17 C-11.33 18.65 -11.66 20.3 -12 22 C-12.66 22 -13.32 22 -14 22 C-12.56294131 16.46689377 -9.84069277 12.65391817 -6.4375 8.1875 C-5.93025391 7.50751953 -5.42300781 6.82753906 -4.90039062 6.12695312 C-1.24503968 1.24503968 -1.24503968 1.24503968 0 0 Z " fill="#A8BF89" transform="translate(477,169)"/>
<path d="M0 0 C1.125 1.625 1.125 1.625 2 4 C0.98842676 9.17026325 -1.30693233 12.39281763 -5 16 C-7.8125 16.375 -7.8125 16.375 -10 16 C-10.33 16.66 -10.66 17.32 -11 18 C-11.66 17.34 -12.32 16.68 -13 16 C-11.9275 15.690625 -10.855 15.38125 -9.75 15.0625 C-6.26158253 13.59665993 -5.17697134 12.00584058 -3.6875 8.5625 C-3.1195533 7.0436923 -2.55689861 5.52289337 -2 4 C-1.35082402 2.6580638 -0.6894498 1.32169633 0 0 Z " fill="#89A560" transform="translate(697,261)"/>
<path d="M0 0 C0.33 0.99 0.66 1.98 1 3 C-0.32 3.33 -1.64 3.66 -3 4 C-3 4.66 -3 5.32 -3 6 C-5.1875 7.5078125 -5.1875 7.5078125 -8 9.125 C-8.928125 9.66382813 -9.85625 10.20265625 -10.8125 10.7578125 C-11.534375 11.16773438 -12.25625 11.57765625 -13 12 C-13.99 11.34 -14.98 10.68 -16 10 C-13.89888391 8.51633029 -11.79435965 7.03797344 -9.6875 5.5625 C-8.79514648 4.93118164 -8.79514648 4.93118164 -7.88476562 4.28710938 C-5.27057039 2.46155404 -3.04237604 1.01412535 0 0 Z " fill="#89A45C" transform="translate(676,281)"/>
<path d="M0 0 C1.1700097 3.91736581 0.69584017 6.97959015 0 11 C-0.66 11 -1.32 11 -2 11 C-1.938125 12.8253125 -1.938125 12.8253125 -1.875 14.6875 C-1.86245492 18.21894127 -2.40001783 20.80003566 -4 24 C-6.00783044 21.04730818 -6.23781852 18.77431554 -5.625 15.28125 C-4.18973567 10.0425352 -2.04730521 5.02383013 0 0 Z " fill="#A8C087" transform="translate(458,199)"/>
<path d="M0 0 C0.33 0 0.66 0 1 0 C1.99 7.26 2.98 14.52 4 22 C4.99 22.33 5.98 22.66 7 23 C7 23.66 7 24.32 7 25 C5.68 25.33 4.36 25.66 3 26 C3 24.02 3 22.04 3 20 C2.34 20 1.68 20 1 20 C-0.1482685 17.703463 -0.11561175 16.41686833 -0.09765625 13.8671875 C-0.09443359 13.06152344 -0.09121094 12.25585938 -0.08789062 11.42578125 C-0.07951172 10.58402344 -0.07113281 9.74226563 -0.0625 8.875 C-0.05798828 8.02550781 -0.05347656 7.17601562 -0.04882812 6.30078125 C-0.03702874 4.20049091 -0.01909306 2.1002367 0 0 Z " fill="#86A25D" transform="translate(604,393)"/>
<path d="M0 0 C3 0.25 3 0.25 5 2.25 C3.80375 2.62125 2.6075 2.9925 1.375 3.375 C-3.28884475 5.11462237 -5.78032325 7.48062234 -9 11.25 C-9.33 12.24 -9.66 13.23 -10 14.25 C-10.99 14.58 -11.98 14.91 -13 15.25 C-11.23462759 9.60080829 -6.31048789 0.52587399 0 0 Z " fill="#E4EFCD" transform="translate(632,294.75)"/>
<path d="M0 0 C0.99 0.33 1.98 0.66 3 1 C2.43379244 2.94257381 1.84634522 4.87896531 1.25 6.8125 C0.92515625 7.89144531 0.6003125 8.97039062 0.265625 10.08203125 C-1.10263435 13.23662919 -1.98458701 14.40853203 -5 16 C-6.32 16 -7.64 16 -9 16 C-8.67 15.01 -8.34 14.02 -8 13 C-5.9375 12.3125 -5.9375 12.3125 -4 12 C-3.566875 10.14375 -3.566875 10.14375 -3.125 8.25 C-2.38665206 5.27551258 -1.55525067 2.666144 0 0 Z " fill="#7F9B54" transform="translate(703,270)"/>
<path d="M0 0 C2.12508244 3.18762365 2.5020163 5.26512223 3 9 C3.66 9 4.32 9 5 9 C6.18695553 12.56086658 6.35095418 15.97331024 6.5625 19.6875 C6.60568359 20.38939453 6.64886719 21.09128906 6.69335938 21.81445312 C6.7991736 23.54275206 6.90006581 25.2713511 7 27 C4.81005752 23.71508627 4.64722661 22.16904361 4.375 18.3125 C4.30023437 17.31863281 4.22546875 16.32476562 4.1484375 15.30078125 C4.09945312 14.54152344 4.05046875 13.78226563 4 13 C3.01 14.485 3.01 14.485 2 16 C0.40837921 10.42932723 -0.20674944 5.78898419 0 0 Z " fill="#93AC6E" transform="translate(951,208)"/>
<path d="M0 0 C0.66 0 1.32 0 2 0 C2 0.66 2 1.32 2 2 C3.32 1.67 4.64 1.34 6 1 C6.23074219 1.66386719 6.46148437 2.32773437 6.69921875 3.01171875 C8.7259087 8.4990018 10.48638146 12.23865122 15 16 C14.67 16.66 14.34 17.32 14 18 C12.82737096 16.88121617 11.66204862 15.75476949 10.5 14.625 C9.8503125 13.99851562 9.200625 13.37203125 8.53125 12.7265625 C7 11 7 11 7 9 C6.34 9 5.68 9 5 9 C3.7109375 7.28515625 3.7109375 7.28515625 2.375 5.0625 C1.92898438 4.33160156 1.48296875 3.60070312 1.0234375 2.84765625 C0 1 0 1 0 0 Z " fill="#B4CA92" transform="translate(470,589)"/>
<path d="M0 0 C2 2 2 2 2.3125 5.8125 C2.22910151 9.65578019 1.20881736 11.819303 -1 15 C-1.165 15.7425 -1.33 16.485 -1.5 17.25 C-1.665 17.8275 -1.83 18.405 -2 19 C-2.99 19.33 -3.98 19.66 -5 20 C-5.66 19.34 -6.32 18.68 -7 18 C-5.35 15.03 -3.7 12.06 -2 9 C-1.67 9 -1.34 9 -1 9 C-0.67 6.03 -0.34 3.06 0 0 Z " fill="#85A45A" transform="translate(804,354)"/>
<path d="M0 0 C3.42409111 3.06679465 5.27342685 6.11716523 7.25 10.25 C7.77078125 11.32765625 8.2915625 12.4053125 8.828125 13.515625 C9.21484375 14.33546875 9.6015625 15.1553125 10 16 C8 16 8 16 6.5625 14.6875 C6.046875 14.130625 5.53125 13.57375 5 13 C4.1646875 12.2265625 4.1646875 12.2265625 3.3125 11.4375 C2 10 2 10 2 8 C1.34 8 0.68 8 0 8 C0 5.36 0 2.72 0 0 Z " fill="#F2F8E0" transform="translate(758,299)"/>
<path d="M0 0 C3.6930085 1.62668231 6.61629195 3.91312407 9.75 6.4375 C10.73484375 7.21996094 11.7196875 8.00242188 12.734375 8.80859375 C13.85585938 9.89333984 13.85585938 9.89333984 15 11 C15 11.99 15 12.98 15 14 C14.01 13.34 13.02 12.68 12 12 C11.67 12.66 11.34 13.32 11 14 C9.62437146 12.71034824 8.29233607 11.37310707 7 10 C7 9.34 7 8.68 7 8 C6.01 7.67 5.02 7.34 4 7 C4.66 6.67 5.32 6.34 6 6 C4.02 5.01 2.04 4.02 0 3 C0 2.01 0 1.02 0 0 Z " fill="#9CB778" transform="translate(907,148)"/>
<path d="M0 0 C0.99 0.33 1.98 0.66 3 1 C2.60167969 1.58007812 2.20335937 2.16015625 1.79296875 2.7578125 C-1.12751607 7.0639288 -3.81884446 11.274163 -6 16 C-6.33 16 -6.66 16 -7 16 C-6.80753701 6.98923284 -6.80753701 6.98923284 -3.5 2.9375 C-2.675 2.298125 -1.85 1.65875 -1 1 C-0.67 0.67 -0.34 0.34 0 0 Z " fill="#85A15D" transform="translate(623,298)"/>
<path d="M0 0 C1 1 1 1 1.11352539 3.86743164 C1.10828857 5.11903076 1.10305176 6.37062988 1.09765625 7.66015625 C1.0962413 8.32462265 1.09482635 8.98908905 1.09336853 9.6736908 C1.08775518 11.80333899 1.07520054 13.93288339 1.0625 16.0625 C1.05748671 17.50325369 1.05292351 18.94400903 1.04882812 20.38476562 C1.03778145 23.92321102 1.02050792 27.46159539 1 31 C0.67 31 0.34 31 0 31 C-0.33 21.76 -0.66 12.52 -1 3 C-2.65 2.67 -4.3 2.34 -6 2 C-6 2.66 -6 3.32 -6 4 C-7.32 3.67 -8.64 3.34 -10 3 C-6.51436649 0.60985131 -4.25471906 -0.47274656 0 0 Z " fill="#DBE9C2" transform="translate(730,253)"/>
<path d="M0 0 C2 3 2 3 3 6 C1.70513179 7.69672386 0.36639342 9.3603279 -1 11 C-2.24016669 13.6794645 -2.24016669 13.6794645 -3 16 C-3.99 16 -4.98 16 -6 16 C-6.33 15.34 -6.66 14.68 -7 14 C-6.22265625 12.2734375 -6.22265625 12.2734375 -5.0625 10.375 C-4.0415625 8.704375 -4.0415625 8.704375 -3 7 C-2.34 7 -1.68 7 -1 7 C-0.67 4.69 -0.34 2.38 0 0 Z " fill="#8EAA64" transform="translate(645,304)"/>
<path d="M0 0 C2.35716404 2.15454249 3.78966144 4.19719874 5.1875 7.0625 C5.53167969 7.75472656 5.87585938 8.44695313 6.23046875 9.16015625 C7 11 7 11 7 13 C8.32 13.33 9.64 13.66 11 14 C13.14285714 21.42857143 13.14285714 21.42857143 14 25 C9.55655017 21.28328262 7.34803489 16.4351261 4.75 11.375 C4.29109375 10.50359375 3.8321875 9.6321875 3.359375 8.734375 C0 2.27557664 0 2.27557664 0 0 Z " fill="#CADBAF" transform="translate(456,564)"/>
<path d="M0 0 C0.33 0 0.66 0 1 0 C1 6.27 1 12.54 1 19 C-3 15 -3 15 -3.4375 12.3125 C-2.86525782 7.97980919 -1.52412369 4.08247416 0 0 Z " fill="#E8F1D3" transform="translate(643,453)"/>
<path d="M0 0 C-0.60903059 3.09305422 -1.59868803 5.19639762 -3.4375 7.75 C-3.86933594 8.36359375 -4.30117188 8.9771875 -4.74609375 9.609375 C-5.15988281 10.06828125 -5.57367188 10.5271875 -6 11 C-6.66 11 -7.32 11 -8 11 C-8 11.66 -8 12.32 -8 13 C-9.32 13.33 -10.64 13.66 -12 14 C-12 13.34 -12 12.68 -12 12 C-11.34 11.67 -10.68 11.34 -10 11 C-9.566875 10.0925 -9.13375 9.185 -8.6875 8.25 C-6.86589734 4.74172822 -4.38526535 0 0 0 Z " fill="#7D9E53" transform="translate(486,163)"/>
<path d="M0 0 C0.70511719 0.30679688 1.41023438 0.61359375 2.13671875 0.9296875 C5.04265573 2.01594498 7.75754152 2.6097058 10.8125 3.125 C11.78832031 3.29257812 12.76414062 3.46015625 13.76953125 3.6328125 C14.50558594 3.75398437 15.24164062 3.87515625 16 4 C16.33 4.99 16.66 5.98 17 7 C18.65 7 20.3 7 22 7 C22 7.66 22 8.32 22 9 C20.741875 8.87625 19.48375 8.7525 18.1875 8.625 C17.47980469 8.55539062 16.77210938 8.48578125 16.04296875 8.4140625 C14 8 14 8 11 6 C9.865625 5.71125 8.73125 5.4225 7.5625 5.125 C3.89615395 3.96720651 2.42016115 2.90419338 0 0 Z " fill="#97B171" transform="translate(503,621)"/>
<path d="M0 0 C0.66 0.33 1.32 0.66 2 1 C1.12360894 2.49076829 0.22303672 3.96733869 -0.6875 5.4375 C-1.43580078 6.67306641 -1.43580078 6.67306641 -2.19921875 7.93359375 C-4.41729311 10.47884611 -5.73097686 10.54481956 -9 11 C-11.7700997 12.96509909 -11.7700997 12.96509909 -14 15 C-12.55922954 11.63820226 -10.75249979 9.40843732 -8 7 C-7.34 7 -6.68 7 -6 7 C-6 6.34 -6 5.68 -6 5 C-4.04072937 3.2856382 -2.04119788 1.61594832 0 0 Z " fill="#B0C691" transform="translate(492,154)"/>
<path d="M0 0 C1.15317236 4.05039877 1.34744535 8.05985542 1.62109375 12.24609375 C2.01411704 15.10260325 2.82451916 17.37777352 4 20 C-2.15323646 13.84676354 -2.15323646 13.84676354 -2.1875 8.625 C-2.20167969 7.64789063 -2.21585938 6.67078125 -2.23046875 5.6640625 C-2 3 -2 3 0 0 Z " fill="#E8F3CE" transform="translate(625,492)"/>
<path d="M0 0 C6.01959919 2.68566733 11.25520992 7.99577171 14 14 C13.67 14.66 13.34 15.32 13 16 C12.34 15.67 11.68 15.34 11 15 C11 14.34 11 13.68 11 13 C10.38125 12.95875 9.7625 12.9175 9.125 12.875 C8.073125 12.441875 8.073125 12.441875 7 12 C6.30562253 10.00945124 5.64389782 8.00744615 5 6 C3.46527346 3.84163855 1.78211928 1.96971078 0 0 Z " fill="#BCD19D" transform="translate(923,162)"/>
<path d="M0 0 C3.15140423 0.34069235 4.60781561 0.58076841 6.8125 2.9375 C8 5 8 5 8 7 C8.99 7 9.98 7 11 7 C11 7.99 11 8.98 11 10 C11.66 10 12.32 10 13 10 C13.33 10.99 13.66 11.98 14 13 C11 13 11 13 9.31640625 11.42578125 C8.44822266 10.37970703 8.44822266 10.37970703 7.5625 9.3125 C6.9540625 8.58675781 6.345625 7.86101562 5.71875 7.11328125 C1.62162162 2.07567568 1.62162162 2.07567568 0 0 Z " fill="#85A35E" transform="translate(722,380)"/>
<path d="M0 0 C1.32 0.33 2.64 0.66 4 1 C0.10409372 4.89590628 -5.83326939 6.36176834 -11 8 C-11 7.01 -11 6.02 -11 5 C-4.6 0.93846154 -4.6 0.93846154 -1.5625 1.25 C-1.046875 1.4975 -0.53125 1.745 0 2 C0 1.34 0 0.68 0 0 Z " fill="#8DA965" transform="translate(902,620)"/>
<path d="M0 0 C0.8125 1.6875 0.8125 1.6875 1 4 C-2.6128266 8.77825453 -6.49233925 10.22634654 -12 12 C-12.66 11.34 -13.32 10.68 -14 10 C-13.40832031 9.69707031 -12.81664062 9.39414062 -12.20703125 9.08203125 C-7.38110043 6.52342192 -3.62551378 4.09332201 0 0 Z " fill="#86A35E" transform="translate(796,373)"/>
<path d="M0 0 C1.98 0 3.96 0 6 0 C6 0.66 6 1.32 6 2 C7.32 2.33 8.64 2.66 10 3 C5.71 3.99 1.42 4.98 -3 6 C-3 5.01 -3 4.02 -3 3 C-2.34 3 -1.68 3 -1 3 C-0.67 2.01 -0.34 1.02 0 0 Z " fill="#8AA95B" transform="translate(676,254)"/>
<path d="M0 0 C1.65 0 3.3 0 5 0 C2.86059892 2.21863816 0.8775601 4.08257575 -1.6875 5.8125 C-4.74158428 8.70149864 -4.76337577 10.89851341 -5 15 C-6.98362069 12.08291076 -6.9876191 10.87619096 -6.625 7.25 C-6.41875 6.1775 -6.2125 5.105 -6 4 C-4.35 3.67 -2.7 3.34 -1 3 C-0.67 2.01 -0.34 1.02 0 0 Z " fill="#84A158" transform="translate(649,270)"/>
<path d="M0 0 C7.5162931 1.82310088 13.54796871 4.75813262 20 9 C19.67 9.66 19.34 10.32 19 11 C16.03 10.505 16.03 10.505 13 10 C13 9.01 13 8.02 13 7 C12.34 6.7525 11.68 6.505 11 6.25 C7.23639093 4.68182955 3.6288576 2.85494954 0 1 C0 0.67 0 0.34 0 0 Z " fill="#C8DAA9" transform="translate(887,137)"/>
<path d="M0 0 C1 3 1 3 -0.14453125 5.8828125 C-0.69496094 6.95273437 -1.24539063 8.02265625 -1.8125 9.125 C-2.35519531 10.20007813 -2.89789062 11.27515625 -3.45703125 12.3828125 C-5 15 -5 15 -7 16 C-7 13.69 -7 11.38 -7 9 C-6.01 9 -5.02 9 -4 9 C-4 7.35 -4 5.7 -4 4 C-3.01 4 -2.02 4 -1 4 C-0.67 2.68 -0.34 1.36 0 0 Z " fill="#B4C793" transform="translate(950,565)"/>
<path d="M0 0 C2.25039617 3.37559426 2.17616009 3.97975643 1.6875 7.8125 C1.52507813 9.13314453 1.52507813 9.13314453 1.359375 10.48046875 C0.95296785 13.3297363 0.52143796 16.1693368 0 19 C-2.48042815 14.64940776 -2.4403486 10.90311231 -2 6 C-1 2.4375 -1 2.4375 0 0 Z " fill="#89A55E" transform="translate(629,342)"/>
<path d="M0 0 C-3.3 3.63 -6.6 7.26 -10 11 C-10.66 10.67 -11.32 10.34 -12 10 C-11.67 9.01 -11.34 8.02 -11 7 C-10.34 6.67 -9.68 6.34 -9 6 C-9 4.35 -9 2.7 -9 1 C-2.25 -1.125 -2.25 -1.125 0 0 Z " fill="#77974C" transform="translate(666,303)"/>
<path d="M0 0 C0.33 0.66 0.66 1.32 1 2 C2.051875 1.95875 3.10375 1.9175 4.1875 1.875 C7.76596091 1.99232659 9.90310825 2.26938402 13 4 C13.33 4.99 13.66 5.98 14 7 C7.81839396 6.46246904 2.673142 4.45417612 -3 2 C-2.01 1.34 -1.02 0.68 0 0 Z " fill="#89A663" transform="translate(535,632)"/>
<path d="M0 0 C0 0.66 0 1.32 0 2 C-1.828125 3.40234375 -1.828125 3.40234375 -4.25 4.9375 C-7.25841232 6.8595412 -10.16833989 8.82429785 -13 11 C-11.76141604 6.04566415 -10.27241667 3.81354269 -6 1 C-3 0 -3 0 0 0 Z " fill="#80A151" transform="translate(502,152)"/>
<path d="M0 0 C-0.33 0.99 -0.66 1.98 -1 3 C-1.66 3 -2.32 3 -3 3 C-3.33 3.99 -3.66 4.98 -4 6 C-4.33 4.68 -4.66 3.36 -5 2 C-10.94 2.495 -10.94 2.495 -17 3 C-12.64547174 -1.35452826 -5.77102003 -0.10085278 0 0 Z " fill="#DAE8BF" transform="translate(703,254)"/>
<path d="M0 0 C4.23166024 0.90678434 7.07428146 1.77672907 9.75 5.3125 C11.07167427 8.15409967 11.26483411 9.91026876 11 13 C10.443125 12.278125 9.88625 11.55625 9.3125 10.8125 C7.03615962 7.95119715 7.03615962 7.95119715 4.375 5.375 C2 3 2 3 0 0 Z " fill="#8BA564" transform="translate(752,292)"/>
<path d="M0 0 C-0.625 1.875 -0.625 1.875 -2 4 C-6.07913567 5.85415258 -9.5528265 6.21177017 -14 6 C-9.90047869 2.27316245 -5.67194077 0 0 0 Z " fill="#ECF5D8" transform="translate(693,288)"/>
<path d="M0 0 C0.66 0.33 1.32 0.66 2 1 C0.92492371 2.29854721 -0.16043736 3.58858361 -1.25 4.875 C-1.85328125 5.59429687 -2.4565625 6.31359375 -3.078125 7.0546875 C-5 9 -5 9 -7.171875 10.0703125 C-9.36169337 10.91462673 -9.36169337 10.91462673 -10 14 C-10.33 13.34 -10.66 12.68 -11 12 C-3.70159453 3.55353075 -3.70159453 3.55353075 0 0 Z " fill="#E8F2D1" transform="translate(718,257)"/>
<path d="M0 0 C1.32 0.66 2.64 1.32 4 2 C1.14723863 4.93200474 -1.65079784 7.64315404 -5 10 C-5.66 9.67 -6.32 9.34 -7 9 C-7 8.01 -7 7.02 -7 6 C-4.69 5.01 -2.38 4.02 0 3 C0 2.01 0 1.02 0 0 Z " fill="#A3BA81" transform="translate(913,610)"/>
<path d="M0 0 C0.33 0 0.66 0 1 0 C1.10807131 1.93627769 1.1856225 3.87427756 1.25 5.8125 C1.29640625 6.89144531 1.3428125 7.97039062 1.390625 9.08203125 C1 12 1 12 -1.015625 13.88671875 C-1.67046875 14.25410156 -2.3253125 14.62148438 -3 15 C-3.1953125 8.9453125 -3.1953125 8.9453125 -3 7 C-2.34 6.34 -1.68 5.68 -1 5 C-0.35232207 2.42938689 -0.35232207 2.42938689 0 0 Z " fill="#EDF6D4" transform="translate(790,495)"/>
<path d="M0 0 C1.65 0 3.3 0 5 0 C-1 6 -1 6 -3.875 6.25 C-7 6 -7 6 -10 3 C-7.03 3.33 -4.06 3.66 -1 4 C-0.67 2.68 -0.34 1.36 0 0 Z " fill="#EAF3D5" transform="translate(659,288)"/>
<path d="M0 0 C2.11044382 3.16566573 2.75552077 5.51197415 3.625 9.1875 C3.88539063 10.27417969 4.14578125 11.36085938 4.4140625 12.48046875 C4.60742188 13.31191406 4.80078125 14.14335937 5 15 C4.01 15.495 4.01 15.495 3 16 C0.96780512 12.59648662 0.63108961 9.6767073 0.375 5.75 C0.30023437 4.67234375 0.22546875 3.5946875 0.1484375 2.484375 C0.09945312 1.66453125 0.05046875 0.8446875 0 0 Z " fill="#819E58" transform="translate(640,414)"/>
<path d="M0 0 C1.48400777 2.35695352 2.01570001 3.68599981 1.875 6.5 C0.8281942 9.49087373 -0.63321149 10.93860355 -3 13 C-3.38281159 7.76824163 -2.21854707 4.62197306 0 0 Z " fill="#E9F1D3" transform="translate(616,314)"/>
<path d="M0 0 C0.66 0.33 1.32 0.66 2 1 C1 3 0 5 -1 7 C-3.06640625 7.6328125 -3.06640625 7.6328125 -5.5625 8.125 C-6.38878906 8.29257813 -7.21507812 8.46015625 -8.06640625 8.6328125 C-8.70449219 8.75398437 -9.34257812 8.87515625 -10 9 C-6.83047153 5.73991357 -3.60062011 2.77762123 0 0 Z " fill="#A9BE89" transform="translate(504,145)"/>
<path d="M0 0 C0.33 0.66 0.66 1.32 1 2 C1.66 2 2.32 2 3 2 C3 2.66 3 3.32 3 4 C3.66 4.33 4.32 4.66 5 5 C4.67 6.65 4.34 8.3 4 10 C3.34 10 2.68 10 2 10 C-1.07692308 4.58461538 -1.07692308 4.58461538 -0.6875 1.625 C-0.460625 1.08875 -0.23375 0.5525 0 0 Z " fill="#84A559" transform="translate(461,567)"/>
<path d="M0 0 C0.66 0.33 1.32 0.66 2 1 C1.85691406 1.56203125 1.71382812 2.1240625 1.56640625 2.703125 C0.98879098 5.04545453 0.45716693 7.39417659 -0.0625 9.75 C-0.23910156 10.54921875 -0.41570313 11.3484375 -0.59765625 12.171875 C-0.73042969 12.77515625 -0.86320313 13.3784375 -1 14 C-1.66 13.67 -2.32 13.34 -3 13 C-3.125 6.375 -3.125 6.375 -2 3 C-1.34 3 -0.68 3 0 3 C0 2.01 0 1.02 0 0 Z " fill="#7F9E53" transform="translate(633,332)"/>
<path d="M0 0 C0.66 0 1.32 0 2 0 C0.13236819 5.72210596 -1.85289032 11.37661751 -4 17 C-4.33 17 -4.66 17 -5 17 C-5 15.02 -5 13.04 -5 11 C-4.34 11 -3.68 11 -3 11 C-2.87625 10.113125 -2.7525 9.22625 -2.625 8.3125 C-2.05587264 5.29612498 -1.23385564 2.79673946 0 0 Z " fill="#7F9A54" transform="translate(614,314)"/>
<path d="M0 0 C1.1446875 1.175625 1.1446875 1.175625 2.3125 2.375 C5.81376772 5.79484289 8.23057915 7.2265804 13 8 C12.01 8.33 11.02 8.66 10 9 C9.67 9.66 9.34 10.32 9 11 C7.48694773 10.12639244 5.98978362 9.22522237 4.5 8.3125 C3.6646875 7.81363281 2.829375 7.31476563 1.96875 6.80078125 C0 5 0 5 -0.28125 2.29296875 C-0.1884375 1.53628906 -0.095625 0.77960938 0 0 Z " fill="#8AA563" transform="translate(644,286)"/>
<path d="M0 0 C0.33 1.32 0.66 2.64 1 4 C1.66 4 2.32 4 3 4 C2.88637738 5.4800841 2.75877092 6.95910074 2.625 8.4375 C2.52058594 9.67306641 2.52058594 9.67306641 2.4140625 10.93359375 C2.27742188 11.61550781 2.14078125 12.29742187 2 13 C1.01 13.495 1.01 13.495 0 14 C-1.13016601 8.97703996 -0.77916092 5.02125926 0 0 Z " fill="#84A65B" transform="translate(452,219)"/>
<path d="M0 0 C0.66 0.33 1.32 0.66 2 1 C-2.43076923 6.78461538 -2.43076923 6.78461538 -5.3125 7.875 C-6.1478125 7.936875 -6.1478125 7.936875 -7 8 C-7 10.31 -7 12.62 -7 15 C-7.33 15 -7.66 15 -8 15 C-8.70466321 9.97927461 -8.70466321 9.97927461 -8 7 C-5.64106573 4.23239072 -2.95202091 2.10858636 0 0 Z " fill="#DDE9C5" transform="translate(652,271)"/>
<path d="M0 0 C1.32 0.66 2.64 1.32 4 2 C-0.75 7.75 -0.75 7.75 -3 10 C-3.625 7.6875 -3.625 7.6875 -4 5 C-3.34 4.01 -2.68 3.02 -2 2 C-1.34 2 -0.68 2 0 2 C0 1.34 0 0.68 0 0 Z " fill="#88A55B" transform="translate(709,261)"/>
<path d="M0 0 C3.11227851 4.66841777 3.11824029 8.17597138 3.0625 13.75 C3.05347656 14.92046875 3.04445313 16.0909375 3.03515625 17.296875 C3.02355469 18.18890625 3.01195312 19.0809375 3 20 C2.67 20 2.34 20 2 20 C1.93941406 19.37351562 1.87882813 18.74703125 1.81640625 18.1015625 C1.69072266 16.87566406 1.69072266 16.87566406 1.5625 15.625 C1.48128906 14.81289063 1.40007813 14.00078125 1.31640625 13.1640625 C1.10909886 10.95727195 1.10909886 10.95727195 0 9 C-0.06950541 7.45976004 -0.08452357 5.91665012 -0.0625 4.375 C-0.05347656 3.55773437 -0.04445313 2.74046875 -0.03515625 1.8984375 C-0.02355469 1.27195312 -0.01195312 0.64546875 0 0 Z " fill="#C6D8A9" transform="translate(771,449)"/>
<path d="M0 0 C0.66 0.66 1.32 1.32 2 2 C1.625 4.625 1.625 4.625 1 7 C0.01 7 -0.98 7 -2 7 C-2 7.99 -2 8.98 -2 10 C-3.32 10 -4.64 10 -6 10 C-6 9.34 -6 8.68 -6 8 C-5.01 8 -4.02 8 -3 8 C-2.690625 6.865625 -2.38125 5.73125 -2.0625 4.5625 C-1 1 -1 1 0 0 Z " fill="#84A356" transform="translate(942,574)"/>
<path d="M0 0 C0.66 0.33 1.32 0.66 2 1 C2 1.99 2 2.98 2 4 C2.66 4 3.32 4 4 4 C4.33 6.31 4.66 8.62 5 11 C4.01 11.495 4.01 11.495 3 12 C2.30062798 10.5682384 1.61587282 9.12932968 0.9375 7.6875 C0.55464844 6.88699219 0.17179688 6.08648437 -0.22265625 5.26171875 C-1 3 -1 3 0 0 Z " fill="#83A157" transform="translate(766,431)"/>
<path d="M0 0 C-4.66666667 2.33333333 -9.33333333 4.66666667 -14 7 C-13.9375 5.1875 -13.9375 5.1875 -13 3 C-3.58878505 -1.79439252 -3.58878505 -1.79439252 0 0 Z " fill="#E1ECC9" transform="translate(680,280)"/>
<path d="M0 0 C0.33 0.66 0.66 1.32 1 2 C-1.76452033 3.38226016 -4.0461363 3.09525387 -7.125 3.0625 C-8.22070312 3.05347656 -9.31640625 3.04445312 -10.4453125 3.03515625 C-11.70988281 3.01775391 -11.70988281 3.01775391 -13 3 C-8.48166204 0.66292864 -5.11018582 -0.11355968 0 0 Z " fill="#86A360" transform="translate(553,129)"/>
<path d="M0 0 C-1.74468372 0.70088156 -3.49601161 1.38524009 -5.25 2.0625 C-6.22453125 2.44535156 -7.1990625 2.82820312 -8.203125 3.22265625 C-11.04007395 4.01113787 -12.29409552 4.02437812 -15 3 C-14.01 3 -13.02 3 -12 3 C-12 2.01 -12 1.02 -12 0 C-10.56359829 -0.19573608 -9.12580496 -0.38127816 -7.6875 -0.5625 C-6.88699219 -0.66691406 -6.08648438 -0.77132812 -5.26171875 -0.87890625 C-3 -1 -3 -1 0 0 Z " fill="#B7CB9B" transform="translate(881,634)"/>
<path d="M0 0 C0.99 0.33 1.98 0.66 3 1 C1.68 4.96 0.36 8.92 -1 13 C-1.33 13 -1.66 13 -2 13 C-2.05447047 11.58376784 -2.09300508 10.16691809 -2.125 8.75 C-2.14820313 7.96109375 -2.17140625 7.1721875 -2.1953125 6.359375 C-1.9828378 3.79268059 -1.28654105 2.2083933 0 0 Z " fill="#89A35E" transform="translate(703,270)"/>
<path d="M0 0 C1.32 1.32 2.64 2.64 4 4 C2.1875 6 2.1875 6 0 8 C-0.99 8 -1.98 8 -3 8 C-1.125 2.25 -1.125 2.25 0 0 Z " fill="#9BB578" transform="translate(462,191)"/>
<path d="M0 0 C4.2742558 1.5830577 6.26531794 4.50568404 9 8 C8.01 8.33 7.02 8.66 6 9 C6 8.34 6 7.68 6 7 C5.34 7 4.68 7 4 7 C4 6.34 4 5.68 4 5 C3.01 4.67 2.02 4.34 1 4 C0.3125 1.9375 0.3125 1.9375 0 0 Z " fill="#81A05B" transform="translate(918,159)"/>
<path d="M0 0 C1.32 0 2.64 0 4 0 C6.09230769 4.43076923 6.09230769 4.43076923 5.625 7.3125 C5.41875 7.869375 5.2125 8.42625 5 9 C5 8.34 5 7.68 5 7 C4.34 7 3.68 7 3 7 C0 2.61538462 0 2.61538462 0 0 Z " fill="#83A259" transform="translate(467,582)"/>
<path d="M0 0 C1.32 0.33 2.64 0.66 4 1 C2.88121617 2.17262904 1.75476949 3.33795138 0.625 4.5 C-0.00148438 5.1496875 -0.62796875 5.799375 -1.2734375 6.46875 C-3 8 -3 8 -5 8 C-4.67 6.68 -4.34 5.36 -4 4 C-3.01 4 -2.02 4 -1 4 C-0.67 2.68 -0.34 1.36 0 0 Z " fill="#E9F4D3" transform="translate(793,372)"/>
<path d="M0 0 C-2.72973106 1.81982071 -4.86781344 3.08326247 -8 4 C-10.3125 3.125 -10.3125 3.125 -12 2 C-7.52828892 -0.66173278 -5.06604612 -1.3268216 0 0 Z " fill="#83A356" transform="translate(673,260)"/>
<path d="M0 0 C0.99 0.33 1.98 0.66 3 1 C3.33 2.65 3.66 4.3 4 6 C-1.75 4.375 -1.75 4.375 -4 1 C-2.68 1.33 -1.36 1.66 0 2 C0 1.34 0 0.68 0 0 Z " fill="#9DB977" transform="translate(489,606)"/>
<path d="M0 0 C0.99 0.33 1.98 0.66 3 1 C1.02 3.31 -0.96 5.62 -3 8 C-3.66 6.68 -4.32 5.36 -5 4 C-4.01 3.67 -3.02 3.34 -2 3 C-2 2.34 -2 1.68 -2 1 C-1.34 0.67 -0.68 0.34 0 0 Z " fill="#8AA763" transform="translate(921,604)"/>
<path d="M0 0 C1.8125 0.1875 1.8125 0.1875 4 1 C6.25016162 4.1156084 7.66602243 7.40852194 9 11 C8.34 11.66 7.68 12.32 7 13 C6.38125 11.1746875 6.38125 11.1746875 5.75 9.3125 C4.3839438 5.63264526 2.65605232 2.93081636 0 0 Z " fill="#8CA663" transform="translate(795,342)"/>
<path d="M0 0 C0.85709523 3.07394306 1.15444061 4.95647475 0 8 C-0.99 8.495 -0.99 8.495 -2 9 C-3.13350534 11.01669827 -3.13350534 11.01669827 -4 13 C-4.33 12.34 -4.66 11.68 -5 11 C-4.00390625 8.3984375 -4.00390625 8.3984375 -2.5625 5.375 C-2.08941406 4.37210937 -1.61632812 3.36921875 -1.12890625 2.3359375 C-0.75636719 1.56507813 -0.38382813 0.79421875 0 0 Z " fill="#DEE9C5" transform="translate(649,324)"/>
<path d="M0 0 C3.04049801 3.64859761 4.96518762 7.7444533 7 12 C5 12 5 12 2.9375 10.5 C0.22771513 7.00350339 0.29179502 4.37692535 0 0 Z " fill="#DEEBC6" transform="translate(761,303)"/>
<path d="M0 0 C3 3 3 3 3.25 6.0625 C3 9 3 9 2 11 C1.34 11 0.68 11 0 11 C0 7.37 0 3.74 0 0 Z " fill="#E4EFCD" transform="translate(642,300)"/>
<path d="M0 0 C1.67542976 0.28604898 3.34385343 0.61781233 5 1 C3.35 2.98 1.7 4.96 0 7 C-0.66 6.67 -1.32 6.34 -2 6 C-1.125 1.125 -1.125 1.125 0 0 Z " fill="#86A45A" transform="translate(625,487)"/>
<path d="M0 0 C1.34173403 0.92543709 2.67320159 1.86577405 4 2.8125 C5.11375 3.59560547 5.11375 3.59560547 6.25 4.39453125 C6.8275 4.92433594 7.405 5.45414062 8 6 C8 6.99 8 7.98 8 9 C4.21304827 8.4590069 2.37254028 6.96567536 0 4 C0 2.68 0 1.36 0 0 Z " fill="#8BA561" transform="translate(709,359)"/>
<path d="M0 0 C2.7053871 4.05808065 5 8.04889399 5 13 C4.01 12.67 3.02 12.34 2 12 C0.65743047 7.68964518 0 4.52218352 0 0 Z " fill="#DDE8C5" transform="translate(691,352)"/>
<path d="M0 0 C1.45047396 2.90094791 0.45356803 4.55972596 -0.4375 7.625 C-0.86869141 9.12933594 -0.86869141 9.12933594 -1.30859375 10.6640625 C-1.53675781 11.43492187 -1.76492188 12.20578125 -2 13 C-2.33 13 -2.66 13 -3 13 C-4.47692308 5.73846154 -4.47692308 5.73846154 -2.0625 2 C-1.381875 1.34 -0.70125 0.68 0 0 Z " fill="#DEEAC6" transform="translate(632,329)"/>
<path d="M0 0 C0.66 0.33 1.32 0.66 2 1 C0.625 2.5 0.625 2.5 -1 4 C-1.66 4 -2.32 4 -3 4 C-3 4.66 -3 5.32 -3 6 C-4.65 5.67 -6.3 5.34 -8 5 C-6.35197949 1.70395897 -3.32254422 1.22409524 0 0 Z " fill="#87A35E" transform="translate(519,138)"/>
<path d="M0 0 C-0.33 0.66 -0.66 1.32 -1 2 C-3.50390625 2.4140625 -3.50390625 2.4140625 -6.5625 2.625 C-7.57441406 2.69976563 -8.58632813 2.77453125 -9.62890625 2.8515625 C-10.41136719 2.90054688 -11.19382812 2.94953125 -12 3 C-11 1 -11 1 -7.6875 -0.1875 C-4.42437937 -0.90649268 -3.00717118 -1.20286847 0 0 Z " fill="#84A656" transform="translate(879,632)"/>
<path d="M0 0 C0.99 0.33 1.98 0.66 3 1 C4.125 4.3125 4.125 4.3125 5 8 C5.309375 9.2065625 5.309375 9.2065625 5.625 10.4375 C5.74875 10.953125 5.8725 11.46875 6 12 C1.6409923 8.51279384 1.05447817 5.27239085 0 0 Z " fill="#AAC28B" transform="translate(464,577)"/>
<path d="M0 0 C0.33 0 0.66 0 1 0 C1.33 1.98 1.66 3.96 2 6 C2.66 6 3.32 6 4 6 C3.25 7.9375 3.25 7.9375 2 10 C-0.125 10.75 -0.125 10.75 -2 11 C-1.67 10.34 -1.34 9.68 -1 9 C-0.77532169 7.46331135 -0.59203195 5.92031946 -0.4375 4.375 C-0.35371094 3.55773437 -0.26992188 2.74046875 -0.18359375 1.8984375 C-0.12300781 1.27195312 -0.06242188 0.64546875 0 0 Z " fill="#8EAB63" transform="translate(791,498)"/>
<path d="M0 0 C0.33 0 0.66 0 1 0 C1.05395478 1.62463842 1.09277195 3.24978541 1.125 4.875 C1.14820313 5.77992188 1.17140625 6.68484375 1.1953125 7.6171875 C1 10 1 10 -1 12 C-2.11658501 7.31034294 -1.80619523 4.46236469 0 0 Z " fill="#83A05A" transform="translate(636,375)"/>
<path d="M0 0 C3.96 1.98 7.92 3.96 12 6 C7.71372952 7.07156762 7.33924618 7.0365854 3.75 5.0625 C3.04359375 4.68222656 2.3371875 4.30195313 1.609375 3.91015625 C1.07828125 3.60980469 0.5471875 3.30945313 0 3 C0 2.01 0 1.02 0 0 Z " fill="#E6F1CF" transform="translate(706,373)"/>
<path d="M0 0 C-4.38512875 3.31558515 -7.37458159 4.54996653 -13 5 C-11.5977422 2.1954844 -9.93929378 1.9557882 -7.0625 0.8125 C-6.16660156 0.44769531 -5.27070312 0.08289063 -4.34765625 -0.29296875 C-2 -1 -2 -1 0 0 Z " fill="#D8E7C1" transform="translate(675,261)"/>
<path d="M0 0 C0.33 0.66 0.66 1.32 1 2 C1.99 2 2.98 2 4 2 C4.33 2.99 4.66 3.98 5 5 C4.01 5.33 3.02 5.66 2 6 C-0.6875 4.5625 -0.6875 4.5625 -3 3 C-2.01 2.67 -1.02 2.34 0 2 C0 1.34 0 0.68 0 0 Z " fill="#89A861" transform="translate(784,484)"/>
<path d="M0 0 C0.33 0 0.66 0 1 0 C1.05422947 1.4370809 1.09289723 2.87475462 1.125 4.3125 C1.14820313 5.11300781 1.17140625 5.91351563 1.1953125 6.73828125 C1 9 1 9 -1 12 C-1.66 12 -2.32 12 -3 12 C-2.67 10.35 -2.34 8.7 -2 7 C-1.34 7 -0.68 7 0 7 C0 4.69 0 2.38 0 0 Z " fill="#F3FBDB" transform="translate(772,460)"/>
<path d="M0 0 C0.33 0 0.66 0 1 0 C1 2.64 1 5.28 1 8 C1.66 8 2.32 8 3 8 C3 9.98 3 11.96 3 14 C1.51171875 12.85546875 1.51171875 12.85546875 0 11 C-0.29296875 8.30078125 -0.29296875 8.30078125 -0.1875 5.3125 C-0.16042969 4.31863281 -0.13335938 3.32476562 -0.10546875 2.30078125 C-0.07066406 1.54152344 -0.03585937 0.78226562 0 0 Z " fill="#7D9652" transform="translate(692,344)"/>
<path d="M0 0 C3.65316671 1.24976756 4.78065836 1.67098753 7 5 C6.67 5.99 6.34 6.98 6 8 C4.9970458 6.85675161 3.99770973 5.71032809 3 4.5625 C2.443125 3.92441406 1.88625 3.28632813 1.3125 2.62890625 C0 1 0 1 0 0 Z " fill="#86A160" transform="translate(788,334)"/>
<path d="M0 0 C6.75 0.75 6.75 0.75 9 3 C5.06329512 4.31223496 2.87511856 3.24296256 -1 2 C-0.67 1.34 -0.34 0.68 0 0 Z " fill="#82A156" transform="translate(884,138)"/>
<path d="M0 0 C0.66 0.33 1.32 0.66 2 1 C1.34 2.65 0.68 4.3 0 6 C-1.98 6 -3.96 6 -6 6 C-4 4 -2 2 0 0 Z " fill="#EBF4D7" transform="translate(674,296)"/>
<path d="M0 0 C4.455 0.99 4.455 0.99 9 2 C8.67 2.66 8.34 3.32 8 4 C4.9375 4.625 4.9375 4.625 2 5 C2 4.01 2 3.02 2 2 C1.34 2 0.68 2 0 2 C0 1.34 0 0.68 0 0 Z " fill="#8CAB64" transform="translate(733,281)"/>
<path d="M0 0 C-1.29299694 2.88437779 -2.65941363 4.87219421 -5 7 C-5.66 6.67 -6.32 6.34 -7 6 C-3.61538462 0 -3.61538462 0 0 0 Z " fill="#EEF6DD" transform="translate(659,268)"/>
<path d="M0 0 C2 3.75 2 3.75 2 6 C1.01 6 0.02 6 -1 6 C-1 6.66 -1 7.32 -1 8 C-1.99 8.33 -2.98 8.66 -4 9 C-2.80100302 5.9168649 -1.52299523 2.93720508 0 0 Z " fill="#91AA6B" transform="translate(697,261)"/>
<path d="M0 0 C-1.1875 1.5 -1.1875 1.5 -3 3 C-5.6875 3.1875 -5.6875 3.1875 -8 3 C-7.67 2.01 -7.34 1.02 -7 0 C-3.86650268 -1.04449911 -3.01031744 -0.93423645 0 0 Z " fill="#EAF3D8" transform="translate(682,259)"/>
<path d="M0 0 C0.66 0 1.32 0 2 0 C1.34 4.62 0.68 9.24 0 14 C-0.33 14 -0.66 14 -1 14 C-1.02685938 11.85423363 -1.04633088 9.70837355 -1.0625 7.5625 C-1.07410156 6.36753906 -1.08570313 5.17257812 -1.09765625 3.94140625 C-1 1 -1 1 0 0 Z " fill="#7A974A" transform="translate(622,493)"/>
<path d="M0 0 C2.97 0.99 5.94 1.98 9 3 C9 3.33 9 3.66 9 4 C2.375 4.125 2.375 4.125 -1 3 C-0.67 2.01 -0.34 1.02 0 0 Z " fill="#7C9A53" transform="translate(771,382)"/>
<path d="M0 0 C-2.8125 1.5625 -2.8125 1.5625 -6 3 C-6.99 2.67 -7.98 2.34 -9 2 C-8 0 -8 0 -6.1875 -0.6875 C-3.81180233 -1.02688538 -2.26664171 -0.72856341 0 0 Z " fill="#7F9B57" transform="translate(681,257)"/>
<path d="M0 0 C0.66 0.99 1.32 1.98 2 3 C0.35 3.33 -1.3 3.66 -3 4 C-3 4.66 -3 5.32 -3 6 C-3.99 5.67 -4.98 5.34 -6 5 C-4.6875 3.5 -4.6875 3.5 -3 2 C-2.01 2 -1.02 2 0 2 C0 1.34 0 0.68 0 0 Z " fill="#81A255" transform="translate(905,616)"/>
<path d="M0 0 C0.763125 0.61875 1.52625 1.2375 2.3125 1.875 C4.99625809 4.05597052 4.99625809 4.05597052 8 6 C5 7 5 7 2.875 6.375 C1 5 1 5 0.25 2.375 C0.1675 1.59125 0.085 0.8075 0 0 Z " fill="#8EA667" transform="translate(625,509)"/>
<path d="M0 0 C0.33 0 0.66 0 1 0 C1.16873478 1.43725871 1.33490737 2.87481838 1.5 4.3125 C1.5928125 5.11300781 1.685625 5.91351563 1.78125 6.73828125 C2 9 2 9 2 12 C1.01 12 0.02 12 -1 12 C-0.67 8.04 -0.34 4.08 0 0 Z " fill="#91AA67" transform="translate(622,497)"/>
<path d="M0 0 C1.65 1.65 3.3 3.3 5 5 C4.34 6.32 3.68 7.64 3 9 C2.01 6.03 1.02 3.06 0 0 Z " fill="#EBF5D3" transform="translate(796,344)"/>
<path d="M0 0 C0.66 0 1.32 0 2 0 C0.92598892 2.91517292 0.22189824 4.77810176 -2 7 C-2.33 5.68 -2.66 4.36 -3 3 C-2.01 2.67 -1.02 2.34 0 2 C0 1.34 0 0.68 0 0 Z " fill="#82A354" transform="translate(696,267)"/>
<path d="M0 0 C3.81684226 1.55500981 6.19195732 4.03595495 9 7 C8.1646875 6.566875 8.1646875 6.566875 7.3125 6.125 C4.91505355 4.9586747 2.48403061 3.9660119 0 3 C0 2.01 0 1.02 0 0 Z " fill="#C0D2A5" transform="translate(907,148)"/>
<path d="M0 0 C0.33 0.66 0.66 1.32 1 2 C0.06694014 4.71435596 -0.62673377 5.78043163 -3.125 7.25 C-3.74375 7.4975 -4.3625 7.745 -5 8 C-3.8141763 4.62496331 -2.72426311 2.35277269 0 0 Z " fill="#BACF9C" transform="translate(477,169)"/>
</svg>
